<svg width="110" height="28" viewBox="0 0 110 28" fill="none" xmlns="http://www.w3.org/2000/svg">
<path d="M47.1421 12.755V21.0019H45.1267V13.0329C45.1267 11.4345 43.8294 10.1141 42.2079 10.1141C41.6055 10.1141 41.0496 10.2994 40.5863 10.6006C40.3314 9.97508 40.0071 9.39594 39.5901 8.86313C40.3546 8.37665 41.2581 8.09866 42.2079 8.09866C44.8256 8.09866 46.98 10.1604 47.1421 12.755ZM34.3547 8.09866C31.737 8.09866 29.5826 10.1604 29.4204 12.755V21.0019H31.4358V13.0329C31.4358 11.4345 32.7331 10.1141 34.3547 10.1141C35.9763 10.1141 37.2736 11.4114 37.2736 13.0329V21.0019H39.289V12.755C39.15 10.1604 36.9956 8.09866 34.3547 8.09866ZM71.6978 8.44615V15.7202C71.6978 17.5271 70.2383 19.0097 68.4082 19.0097C66.5781 19.0097 65.1187 17.5503 65.1187 15.7202V8.44615H63.1265V15.975C63.2655 18.7549 65.582 21.0019 68.4082 21.0019C71.2344 21.0019 73.551 18.778 73.69 15.975V8.44615H71.6978ZM6.44006 8.09866C5.42077 8.09866 4.44781 8.33032 3.59068 8.77046V11.1334C4.35515 10.4847 5.35127 10.0909 6.44006 10.0909C8.89562 10.0909 10.8879 12.0832 10.8879 14.5387C10.8879 16.9943 8.89562 18.9865 6.44006 18.9865C3.9845 18.9865 1.99225 16.9943 1.99225 14.5387V0.361328H0V14.8167C0.138994 18.2452 2.96521 21.0019 6.44006 21.0019C9.91491 21.0019 12.8801 18.1062 12.8801 14.5619C12.8801 11.0175 9.9844 8.12183 6.44006 8.12183V8.09866ZM55.3428 8.09866C54.3235 8.09866 53.3505 8.33032 52.4934 8.77046V11.1334C53.2579 10.4847 54.254 10.0909 55.3428 10.0909C57.7983 10.0909 59.7906 12.0832 59.7906 14.5387C59.7906 16.9943 57.7983 18.9865 55.3428 18.9865C52.8872 18.9865 50.895 16.9943 50.895 14.5387V0.361328H48.9027V14.8167C49.0417 18.2452 51.8679 21.0019 55.3428 21.0019C58.8176 21.0019 61.7828 18.1062 61.7828 14.5619C61.7828 11.0175 58.8871 8.12183 55.3428 8.12183V8.09866ZM20.6869 8.09866C17.1426 8.09866 14.2469 10.9944 14.2469 14.5387C14.2469 18.0831 17.1426 20.9788 20.6869 20.9788C21.7062 20.9788 22.6792 20.7471 23.5363 20.307V17.9441C22.7719 18.5927 21.7757 18.9865 20.6869 18.9865C18.2314 18.9865 16.2391 16.9943 16.2391 14.5387C16.2391 12.0832 18.2314 10.0909 20.6869 10.0909C23.1425 10.0909 25.1348 12.0832 25.1348 14.5387C25.1348 14.5387 25.1348 14.5619 25.1348 14.585V21.0019H27.127V14.3071C26.988 10.8785 24.1618 8.12183 20.6869 8.12183V8.09866Z" fill="#1E1446"/>
<path fill-rule="evenodd" clip-rule="evenodd" d="M102.18 20.9775C106.079 20.9775 109.24 17.8167 109.24 13.9176C109.24 10.0186 106.079 6.85774 102.18 6.85774C98.2811 6.85774 95.1202 10.0186 95.1202 13.9176C95.1202 17.8167 98.2811 20.9775 102.18 20.9775ZM106.385 14.831C107.105 14.419 107.105 13.3801 106.385 12.9682L100.67 9.70016C99.9548 9.29113 99.0645 9.80759 99.0645 10.6315V17.1676C99.0645 17.9915 99.9548 18.508 100.67 18.099L106.385 14.831Z" fill="#55D9B1"/>
<path d="M93.5783 16.0777V13.7843C93.532 12.9735 93.4162 12.1395 93.115 11.375C92.0957 8.711 89.5475 6.85774 86.5591 6.85774C86.5591 6.85774 86.536 6.85774 86.5128 6.85774C86.3043 6.85774 86.119 6.85774 85.9337 6.88091C82.8526 7.1589 80.2118 9.47546 79.6558 12.5565C79.0998 15.5449 80.4666 18.3016 82.7368 19.761C82.9685 19.9232 83.2233 20.0622 83.5013 20.178C84.4279 20.6413 85.4704 20.8961 86.5823 20.8961C87.3468 20.8961 88.1113 20.7571 88.8294 20.5255V17.0275C87.5553 17.9309 85.7947 18.0468 84.3584 17.0275C83.6171 16.5178 83.0843 15.7534 82.8526 14.8731C82.2272 12.487 83.9183 10.2631 86.2117 10.0314C86.2348 10.0314 86.258 10.0314 86.2812 10.0314C86.3738 10.0314 86.4897 10.0314 86.6055 10.0314C88.7367 10.0314 90.4741 11.7689 90.4741 13.9001V20.6182C90.4741 22.4714 89.1769 24.0698 87.37 24.4173C87.092 24.4636 86.8603 24.4868 86.6518 24.4868C86.5591 24.4868 86.4897 24.4868 86.4202 24.4868C83.038 24.4173 82.7136 22.7494 82.7136 21.4521V21.3826H79.6094C79.6094 25.205 82.2967 27.591 86.6286 27.6373C86.6286 27.6373 86.675 27.6373 86.6981 27.6373C86.6981 27.6373 86.6981 27.6373 86.7213 27.6373C86.953 27.6373 87.2078 27.6373 87.5089 27.591C90.2657 27.2435 92.4896 25.3671 93.3004 22.8421C93.5088 22.1703 93.6015 21.4753 93.6015 20.7571L93.6478 16.7032V16.1008L93.5783 16.0777Z" fill="#55D9B1"/>
</svg>
