<svg width="261" height="263" viewBox="0 0 261 263" fill="none" xmlns="http://www.w3.org/2000/svg">
<g clip-path="url(#clip0_9690_166304)">
<path d="M130.371 263.001C202.373 263.001 260.743 204.631 260.743 132.629C260.743 60.6271 202.373 2.25781 130.371 2.25781C58.3692 2.25781 0 60.6271 0 132.629C0 204.631 58.3692 263.001 130.371 263.001Z" fill="url(#paint0_linear_9690_166304)"/>
<path d="M260.057 149.207C245.689 142.93 226.983 139.925 215.301 144.302C204.339 148.412 206.101 156.565 194.852 159.931C176.699 165.365 164.121 146.531 137.11 147.426C113.075 148.221 104.746 163.737 86.5873 159.931C75.2626 157.56 73.1196 150.397 65.0571 145.345C51.5514 136.877 25.6209 136.968 0.690552 141.811C2.96214 174.433 17.2298 203.749 39.1171 225.374C63.738 229.927 90.5256 232.361 116.661 231.389C162.583 229.684 209.029 217.388 240.665 202.744C250.79 186.905 257.585 168.732 260.062 149.207H260.057Z" fill="url(#paint1_linear_9690_166304)"/>
<path d="M168.188 241.818C168.188 242.665 151.259 243.346 130.371 243.346C109.484 243.346 92.5543 242.661 92.5543 241.818C92.5543 240.975 109.484 240.289 130.371 240.289C151.259 240.289 168.188 240.975 168.188 241.818Z" fill="#E6E6E6"/>
<path d="M199.2 241.818C199.2 242.665 194.576 243.346 188.866 243.346C183.156 243.346 178.532 242.661 178.532 241.818C178.532 240.975 183.156 240.289 188.866 240.289C194.576 240.289 199.2 240.975 199.2 241.818Z" fill="#E6E6E6"/>
<path d="M174.875 195.691C174.513 197.501 176.684 197.863 177.046 200.391C177.408 202.92 176.322 203.644 176.684 205.092C177.046 206.539 179.218 206.901 179.575 210.516C179.937 214.13 178.489 213.768 178.851 215.94C179.213 218.112 181.385 218.112 181.742 219.916C182.099 221.721 182.104 224.255 182.827 226.426C183.551 228.598 185.718 231.851 186.804 231.851C187.89 231.851 190.78 225.703 190.057 223.898C189.333 222.093 188.247 221.726 188.247 220.283C188.247 218.84 189.695 215.221 189.333 212.687C188.971 210.154 185.718 209.073 185.356 207.263C184.994 205.454 186.08 200.753 183.547 198.586C181.013 196.42 175.232 193.886 174.87 195.696L174.875 195.691Z" fill="#3FB790"/>
<path d="M186.642 231.232C186.542 231.232 186.461 231.151 186.461 231.051C186.461 231.003 186.428 226.303 185.052 224.927C183.656 223.531 182.856 219.255 182.466 211.068C182.113 203.63 176.78 197.501 176.727 197.439C176.66 197.363 176.67 197.248 176.741 197.182C176.818 197.115 176.932 197.125 176.999 197.196C177.051 197.258 182.47 203.477 182.828 211.049C183.209 219.031 183.994 223.36 185.304 224.669C186.785 226.151 186.818 230.846 186.818 231.046C186.818 231.146 186.737 231.227 186.637 231.227L186.642 231.232Z" fill="#34916F"/>
<path d="M207.977 201.162C209.253 202.438 205.086 202.971 204.724 205.5C204.362 208.029 204.362 209.115 202.915 210.562C201.467 212.01 199.3 212.372 199.662 214.539C200.024 216.711 200.748 218.877 199.662 219.963C198.576 221.049 196.048 221.049 195.324 222.854C194.6 224.659 194.962 226.83 193.514 228.64C192.066 230.45 189.899 234.064 188.09 233.34C186.28 232.616 187.366 224.302 188.09 222.854C188.814 221.406 189.538 220.32 189.538 219.239C189.538 218.158 189.176 216.349 189.899 214.539C190.623 212.729 194.6 212.005 194.962 210.924C195.324 209.843 195.686 204.052 197.852 202.61C200.019 201.167 205.805 198.995 207.977 201.162Z" fill="#4FC7A0"/>
<path d="M188.647 232.727C188.614 232.727 188.585 232.717 188.552 232.703C188.466 232.65 188.437 232.541 188.49 232.455C188.504 232.431 189.952 230.007 190.257 228.783C190.338 228.469 190.433 227.988 190.542 227.436C190.942 225.426 191.547 222.397 192.476 221.464C193.824 220.116 195.981 215.983 197.49 210.696C199.352 204.182 205.505 202.277 205.567 202.258C205.662 202.229 205.762 202.282 205.791 202.382C205.82 202.477 205.767 202.577 205.672 202.605C205.61 202.624 199.643 204.477 197.838 210.796C196.309 216.144 194.114 220.34 192.728 221.721C191.876 222.574 191.261 225.659 190.895 227.507C190.785 228.064 190.69 228.545 190.609 228.869C190.29 230.145 188.861 232.536 188.799 232.636C188.766 232.693 188.704 232.722 188.642 232.722L188.647 232.727Z" fill="#3FB690"/>
<path d="M188.185 205.306C183.847 205.668 185.294 218.683 185.294 218.683C186.38 229.894 187.828 234.956 188.909 235.318C189.99 235.68 192.162 219.407 192.162 215.431C192.162 215.431 192.524 204.944 188.185 205.306Z" fill="#90DAD8"/>
<path d="M188.728 233.507C188.728 233.507 188.714 233.507 188.704 233.507C188.604 233.492 188.533 233.407 188.547 233.307C189.976 221.53 188.204 206.738 188.185 206.59C188.171 206.49 188.242 206.4 188.342 206.39C188.437 206.376 188.533 206.448 188.542 206.548C188.561 206.695 190.338 221.53 188.904 233.35C188.895 233.44 188.814 233.507 188.723 233.507H188.728Z" fill="white"/>
<path d="M194.119 241.741H183.118C182.751 241.741 182.442 241.517 182.399 241.222L180.799 229.811C180.727 229.297 181.127 228.84 181.646 228.84H195.595C196.114 228.84 196.514 229.297 196.443 229.811L194.843 241.222C194.8 241.517 194.49 241.741 194.124 241.741H194.119Z" fill="#E6E6E6"/>
<path d="M78.8486 54.9748H52.3896C50.8418 54.9748 49.4274 54.4128 48.3321 53.4842C46.9796 52.3365 46.1224 50.6221 46.1224 48.7077C46.1224 46.979 46.8225 45.4122 47.9559 44.2788C49.0893 43.1454 50.6561 42.4453 52.3848 42.4453H78.8439C80.5725 42.4453 82.1393 43.1454 83.2727 44.2788C84.4062 45.4122 85.1062 46.979 85.1062 48.7077C85.1062 50.4364 84.4062 52.0031 83.2727 53.1366C82.1393 54.27 80.5725 54.97 78.8439 54.97L78.8486 54.9748Z" fill="#E1E1E1"/>
<path d="M72.5814 46.6717C73.7967 41.57 70.6463 36.4491 65.5446 35.2337C60.4429 34.0183 55.3219 37.1687 54.1065 42.2704C52.8912 47.3721 56.0416 52.4931 61.1433 53.7085C66.245 54.9239 71.366 51.7734 72.5814 46.6717Z" fill="#E1E1E1"/>
<path d="M202.881 34.9745H156.616C153.592 34.9745 150.849 33.7458 148.868 31.7647C146.887 29.7836 145.658 27.0406 145.658 24.0165C145.658 21.8592 146.282 19.8448 147.358 18.1494C149.301 15.0873 152.721 13.0586 156.616 13.0586H202.881C205.905 13.0586 208.648 14.2873 210.63 16.2683C212.611 18.2494 213.839 20.9925 213.839 24.0165C213.839 26.8405 212.773 29.4122 211.02 31.3552C209.015 33.5791 206.11 34.9745 202.881 34.9745Z" fill="white"/>
<path d="M187.503 28.3404C193.986 21.8572 193.987 11.3459 187.503 4.86274C181.02 -1.62043 170.509 -1.62043 164.026 4.86275C157.543 11.3459 157.543 21.8572 164.026 28.3404C170.509 34.8236 181.02 34.8236 187.503 28.3404Z" fill="white"/>
<path d="M109.084 80.8478H209.249C209.753 80.8478 210.206 80.6192 210.511 80.2572C210.749 79.9715 210.896 79.6048 210.896 79.2V60.9368C210.896 60.5368 210.753 60.1653 210.511 59.8796C210.211 59.5176 209.758 59.2891 209.249 59.2891H109.084C108.713 59.2891 108.365 59.4129 108.089 59.6224C107.694 59.9224 107.436 60.3987 107.436 60.932V79.1953C107.436 79.6191 107.598 80.0096 107.865 80.3001C108.165 80.6335 108.598 80.8382 109.084 80.8382V80.8478Z" fill="white"/>
<path d="M194.019 76.6684H205.429C205.691 76.6684 205.924 76.5636 206.096 76.3922C206.267 76.2207 206.372 75.9874 206.372 75.7255V64.3151C206.372 64.1246 206.315 63.9484 206.22 63.8056C206.053 63.5484 205.763 63.377 205.429 63.377H194.019C193.79 63.377 193.576 63.4579 193.414 63.596C193.209 63.7675 193.081 64.0246 193.081 64.3151V75.7255C193.081 75.9874 193.185 76.2207 193.357 76.3922C193.528 76.5636 193.762 76.6684 194.024 76.6684H194.019Z" fill="#E1E1E1"/>
<path d="M120.685 66.3811H184.613C185.028 66.3811 185.404 66.2144 185.675 65.943C185.947 65.6715 186.113 65.2953 186.113 64.881C186.113 64.4809 185.956 64.1143 185.699 63.8476C185.423 63.5571 185.037 63.3809 184.609 63.3809H120.68C120.266 63.3809 119.89 63.5475 119.618 63.819C119.347 64.0904 119.18 64.4667 119.18 64.881C119.18 65.1762 119.266 65.4524 119.413 65.6858C119.68 66.1049 120.152 66.3858 120.685 66.3858V66.3811Z" fill="#E1E1E1"/>
<path d="M120.685 71.9854H184.613C185.099 71.9854 185.532 71.7569 185.809 71.3949C186.004 71.1425 186.118 70.8235 186.118 70.4806C186.118 70.1853 186.033 69.9091 185.885 69.6758C185.618 69.2567 185.151 68.9805 184.613 68.9805H120.685C120.275 68.9805 119.904 69.1424 119.637 69.4091C119.356 69.6805 119.185 70.0615 119.185 70.4853C119.185 70.8996 119.351 71.2759 119.623 71.5473C119.894 71.8188 120.271 71.9854 120.685 71.9854Z" fill="#E1E1E1"/>
<path d="M152.787 110.627H52.6228C52.118 110.627 51.6656 110.398 51.3608 110.037C51.1227 109.751 50.9751 109.384 50.9751 108.979V90.7161C50.9751 90.3161 51.118 89.9446 51.3608 89.6589C51.6609 89.2969 52.118 89.0684 52.6228 89.0684H152.787C153.159 89.0684 153.506 89.1922 153.783 89.4017C154.178 89.7017 154.435 90.178 154.435 90.7113V108.975C154.435 109.398 154.273 109.789 154.006 110.079C153.706 110.413 153.273 110.618 152.787 110.618V110.627Z" fill="white"/>
<path d="M67.8525 106.446H56.4422C56.1803 106.446 55.9469 106.341 55.7755 106.17C55.604 105.998 55.4993 105.765 55.4993 105.503V94.0925C55.4993 93.902 55.5564 93.7258 55.6517 93.5829C55.8183 93.3257 56.1088 93.1543 56.4422 93.1543H67.8525C68.0811 93.1543 68.2954 93.2353 68.4573 93.3734C68.6621 93.5448 68.7907 93.802 68.7907 94.0925V105.503C68.7907 105.765 68.6859 105.998 68.5145 106.17C68.3431 106.341 68.1097 106.446 67.8478 106.446H67.8525Z" fill="#E1E1E1"/>
<path d="M141.186 96.1584H77.2579C76.8436 96.1584 76.4674 95.9917 76.1959 95.7203C75.9245 95.4488 75.7578 95.0726 75.7578 94.6583C75.7578 94.2583 75.915 93.8916 76.1721 93.6249C76.4483 93.3344 76.8341 93.1582 77.2627 93.1582H141.191C141.605 93.1582 141.982 93.3249 142.253 93.5963C142.525 93.8678 142.691 94.244 142.691 94.6583C142.691 94.9536 142.606 95.2298 142.458 95.4631C142.191 95.8822 141.72 96.1632 141.186 96.1632V96.1584Z" fill="#E1E1E1"/>
<path d="M120.756 101.765H77.2532C76.7674 101.765 76.3341 101.536 76.0578 101.174C75.8626 100.922 75.7483 100.603 75.7483 100.26C75.7483 99.9646 75.834 99.6884 75.9816 99.455C76.2483 99.036 76.715 98.7598 77.2532 98.7598H120.756C121.166 98.7598 121.537 98.9217 121.804 99.1884C122.085 99.4598 122.256 99.8408 122.256 100.265C122.256 100.679 122.09 101.055 121.818 101.327C121.547 101.598 121.171 101.765 120.756 101.765Z" fill="#E1E1E1"/>
<path d="M77.4723 121.366C77.4723 121.366 74.3625 118.737 74.1292 118.908C73.8958 119.075 74.253 120.57 74.253 120.57C74.253 120.57 72.1529 118.994 71.248 119.875C70.3432 120.756 73.0339 126.642 75.6817 127.357L77.4675 121.366H77.4723Z" fill="#FFAA9D"/>
<path d="M183.142 118.336C183.142 118.336 186.252 115.708 186.485 115.879C186.718 116.046 186.361 117.541 186.361 117.541C186.361 117.541 188.461 115.965 189.366 116.846C190.271 117.727 187.58 123.613 184.932 124.327L183.147 118.336H183.142Z" fill="#FFAA9D"/>
<path d="M108.698 232.274V237.022H124.952L125.542 231.541L108.698 232.274Z" fill="url(#paint2_linear_9690_166304)"/>
<path d="M108.698 237.021L105.66 240.455C105.403 240.746 105.398 241.122 105.565 241.408C105.703 241.646 105.955 241.817 106.274 241.817H123.804C123.961 241.817 124.109 241.76 124.223 241.66C124.338 241.56 124.414 241.422 124.433 241.265L124.957 237.021H108.698Z" fill="#0B2252"/>
<path d="M153.497 232.255L153.964 237.022H137.705L136.891 231.531L153.497 232.255Z" fill="url(#paint3_linear_9690_166304)"/>
<path d="M153.964 237.021L157.002 240.455C157.259 240.746 157.264 241.122 157.097 241.408C156.959 241.646 156.707 241.817 156.388 241.817H138.858C138.701 241.817 138.553 241.76 138.439 241.66C138.329 241.56 138.248 241.422 138.229 241.265L137.705 237.021H153.964Z" fill="#0B2252"/>
<path d="M116.861 149.383C116.861 149.383 110.637 170.594 109.484 186.733C108.332 202.872 108.384 232.813 108.384 232.813H125.752C125.752 232.813 129.814 191.924 131.424 191.776C133.038 191.629 136.262 232.813 136.262 232.813H154.435C154.435 232.813 150.344 162.408 143.853 149.383H116.861Z" fill="#14336D"/>
<path d="M187.085 123.467L183.132 117.685C176.237 121.638 166.503 121.843 154.64 118.6C145.958 116.223 139.891 113.633 130.181 113.633C120.471 113.633 110.927 120.5 106.098 121.824C94.2354 125.067 84.5014 124.867 77.6056 120.91L73.653 126.691C73.653 126.691 89.8351 140.34 113.756 136.673C113.165 144.702 111.841 156.979 112.251 158.869C113.208 163.313 146.549 163.517 148.163 158.455C148.635 156.969 146.401 141.401 146.063 133.306C170.489 137.473 187.085 123.472 187.085 123.472V123.467Z" fill="url(#paint4_linear_9690_166304)"/>
<path d="M138.986 106.097L139.062 111.103L138.315 111.079C138.315 111.079 137.715 115.222 134.791 114.565C133.953 114.379 132.876 113.665 132.572 113.807C132.205 113.974 132.048 115.112 131.962 115.436C131.643 116.689 127.257 115.422 127.966 114.136C128.643 112.917 129.648 111.25 129.433 110.788C128.69 109.174 128.481 105.169 132.51 103.831C135.724 102.764 138.948 104.378 138.982 106.093L138.986 106.097Z" fill="#FFAA9D"/>
<path d="M127.966 114.141C128.643 112.922 129.648 111.255 129.433 110.793C129.433 110.793 131.129 113.398 132.691 113.793C132.691 113.793 132.695 113.793 132.7 113.793C132.648 113.793 132.605 113.793 132.572 113.807C132.205 113.974 132.048 115.112 131.962 115.436C131.643 116.689 127.257 115.422 127.966 114.136V114.141Z" fill="#FF9F91"/>
<path d="M132.219 108.55C130.333 108.226 131.505 112.427 129.428 112.288C127.352 112.15 125.904 107.607 127.428 104.107C128.952 100.607 131.852 100.802 134.615 101.278C137.377 101.754 140.763 103.007 140.763 105.093C140.758 110.122 134.81 105.902 134.414 107.412C134.11 108.579 133.643 111.96 134.853 112.041C136.062 112.122 137.3 111.117 138.258 111.374C138.81 111.522 140.324 118.117 136.362 118.337C132.438 118.556 131.448 115.093 132.276 112.265C133.062 109.574 133.143 108.702 132.224 108.545L132.219 108.55Z" fill="#14336A"/>
<path d="M214.144 138.153C213.839 138.153 213.558 137.958 213.463 137.653C211.63 131.777 209.206 128.457 206.263 127.781C204.3 127.329 202.629 128.191 200.862 129.1C199.105 130.005 197.286 130.943 195.128 130.558C190.823 129.786 187.566 124.181 185.166 113.428C185.08 113.042 185.323 112.661 185.709 112.575C186.094 112.485 186.475 112.732 186.561 113.118C188.79 123.105 191.757 128.5 195.381 129.153C197.067 129.453 198.591 128.667 200.205 127.834C202.034 126.891 204.105 125.824 206.577 126.391C210.053 127.186 212.83 130.834 214.825 137.229C214.944 137.606 214.735 138.006 214.354 138.125C214.282 138.149 214.211 138.158 214.139 138.158L214.144 138.153Z" fill="#4FC7A0"/>
<path d="M190.009 111.379C188.78 114.398 185.337 115.846 182.318 114.617C179.732 113.565 178.299 110.888 178.713 108.245C178.784 107.803 188.58 104.731 189.195 105.517C190.452 107.126 190.838 109.35 190.014 111.379H190.009Z" fill="#3FB790"/>
<path d="M187.378 107.336L187.465 107.313C187.846 107.21 188.072 106.818 187.969 106.437L186.411 100.658C186.308 100.277 185.916 100.051 185.535 100.154L185.448 100.177C185.067 100.28 184.841 100.672 184.944 101.053L186.502 106.833C186.605 107.214 186.997 107.439 187.378 107.336Z" fill="#14336A"/>
<path d="M181.278 108.993L181.366 108.969C181.747 108.867 181.972 108.474 181.869 108.094L180.31 102.314C180.207 101.933 179.815 101.708 179.434 101.81L179.347 101.834C178.966 101.937 178.74 102.329 178.843 102.71L180.403 108.489C180.505 108.87 180.897 109.096 181.278 108.993Z" fill="#14336A"/>
<path d="M177.443 106.266L189.477 103.136C190.058 102.985 190.65 103.333 190.801 103.914L190.885 104.237C191.486 106.546 190.098 108.909 187.789 109.51L182.018 111.011C179.709 111.611 177.346 110.224 176.745 107.914L176.661 107.592C176.51 107.011 176.858 106.419 177.439 106.268L177.443 106.266Z" fill="#4FC7A0"/>
<path d="M70.9861 165.283C70.8337 165.283 70.6814 165.235 70.548 165.135C65 160.854 62.3379 156.711 62.6379 152.815C62.9427 148.877 66.0953 146.305 69.1431 143.814C72.3005 141.238 75.2817 138.804 75.4436 134.99C75.5341 132.809 74.6435 131.371 73.7006 129.847C72.6815 128.199 71.629 126.494 71.8386 123.894C72.2148 119.298 76.3484 115.055 84.1252 111.288C84.4776 111.117 84.9062 111.264 85.0776 111.622C85.2491 111.979 85.1014 112.403 84.7443 112.574C77.4533 116.108 73.5863 119.955 73.2577 124.013C73.0863 126.146 73.9721 127.58 74.9102 129.099C75.877 130.661 76.977 132.437 76.8628 135.057C76.677 139.509 73.3006 142.262 70.0385 144.924C67.0906 147.329 64.3095 149.6 64.0523 152.929C63.7904 156.31 66.2667 160.039 71.41 164.006C71.7243 164.249 71.7814 164.697 71.5386 165.006C71.3957 165.187 71.1862 165.283 70.9718 165.283H70.9861Z" fill="#4FC7A0"/>
<path d="M88.7541 116.728C85.7253 117.419 82.706 115.523 82.0155 112.49C81.325 109.456 83.2203 106.442 86.2539 105.751C89.2827 105.061 92.3019 106.956 92.9925 109.99C93.683 113.019 91.7876 116.038 88.7541 116.728Z" fill="#3FB790"/>
<path d="M95.0021 116.857C93.802 117.128 92.1209 114.233 91.2447 110.389C90.3684 106.541 90.6303 103.203 91.8304 102.932C93.0305 102.66 94.7116 105.556 95.5878 109.399C96.4641 113.247 96.2022 116.585 95.0021 116.857Z" fill="#4FC7A0"/>
<path d="M87.111 111.888L86.8681 110.822C86.0633 107.283 88.2968 103.731 91.8352 102.926L95.0068 116.851C91.4685 117.655 87.9158 115.422 87.111 111.884V111.888Z" fill="#4FC7A0"/>
<path d="M94.6783 115.432C93.7259 115.651 92.3877 113.346 91.6924 110.284C90.9971 107.227 91.2019 104.569 92.1591 104.35C93.1116 104.131 94.4497 106.436 95.1498 109.498C95.8451 112.556 95.6403 115.213 94.6831 115.432H94.6783Z" fill="#3FB790"/>
<path d="M93.1353 108.318C92.9734 108.356 92.7448 107.961 92.6257 107.442C92.5067 106.923 92.5448 106.466 92.7067 106.432C92.8686 106.394 93.0972 106.789 93.2163 107.308C93.3353 107.828 93.2972 108.285 93.1353 108.318Z" fill="#14336A"/>
<path d="M94.2735 113.322C94.1116 113.36 93.883 112.965 93.7639 112.446C93.6449 111.927 93.683 111.474 93.8449 111.436C94.0068 111.398 94.2354 111.793 94.3544 112.312C94.4735 112.831 94.4354 113.284 94.2735 113.322Z" fill="#14336A"/>
</g>
<defs>
<linearGradient id="paint0_linear_9690_166304" x1="130.371" y1="237.099" x2="130.371" y2="-23.6441" gradientUnits="userSpaceOnUse">
<stop stop-color="#FEFEFD"/>
<stop offset="1" stop-color="#ECECEC"/>
</linearGradient>
<linearGradient id="paint1_linear_9690_166304" x1="130.371" y1="226.998" x2="130.371" y2="152.445" gradientUnits="userSpaceOnUse">
<stop stop-color="#FEFEFD"/>
<stop offset="0.84" stop-color="#EAEAEA"/>
</linearGradient>
<linearGradient id="paint2_linear_9690_166304" x1="108.694" y1="234.279" x2="125.542" y2="234.279" gradientUnits="userSpaceOnUse">
<stop stop-color="#FFAA9D"/>
<stop offset="0.97" stop-color="#FF9F91"/>
</linearGradient>
<linearGradient id="paint3_linear_9690_166304" x1="153.964" y1="234.274" x2="136.896" y2="234.274" gradientUnits="userSpaceOnUse">
<stop stop-color="#FFAA9D"/>
<stop offset="0.97" stop-color="#FF9F91"/>
</linearGradient>
<linearGradient id="paint4_linear_9690_166304" x1="56.2217" y1="135.316" x2="139.694" y2="203.857" gradientUnits="userSpaceOnUse">
<stop offset="0.140625" stop-color="#58B0BF"/>
<stop offset="0.375" stop-color="#77BEB0"/>
<stop offset="0.836407" stop-color="#83C3AA"/>
<stop offset="1" stop-color="#52ADC2"/>
</linearGradient>
<clipPath id="clip0_9690_166304">
<rect width="260.743" height="263" fill="white"/>
</clipPath>
</defs>
</svg>
