<svg xmlns="http://www.w3.org/2000/svg" xml:space="preserve" style="fill-rule:evenodd;clip-rule:evenodd;stroke-linejoin:round;stroke-miterlimit:2" viewBox="0 0 2280 738"><path d="M1072.61 155.023h118.22s117.05-2.36 115.87 104.03c-1.17 79.22-113.49 91.04-113.49 91.04h-120.59v-195.07h-.01Zm353.67 381.9c3.32 15.47 14.52 32.52 51.85 34.28 49.65 1.16 78.03-17.76 78.03-17.76v36.65s-54.38 13.02-80.4 13.02c-27.18 0-107.58-5.92-107.58-80.4 0-60.28 66.21-79.2 104.03-79.2 66.21 2.36 98.13 26.02 96.95 93.39 0 .98-108.94.25-142.88.02Zm.16-29.59h90.71s0-34.28-43.75-34.28c-32.9 0-43.67 17.75-46.96 34.28Zm286.95-37.01c13.13-14.24 35.16-25.64 72.13-25.64 73.3 0 85.13 61.47 83.95 78.02-1.18 16.55-7.09 79.21-92.2 79.21-32.15 0-51.83-10.97-63.86-24.59v19.85h-57.94v-212.8h57.94v85.95h-.02Zm49.68 98.49c34.28-1.19 49.65-30.73 49.65-44.92 0-14.18-8.29-43.74-52.04-43.74-33.94 0-44.28 25.64-47.29 38.17v15.42c2.99 12.77 13.38 35.07 49.68 35.07Zm500.1-5.9 1.17 33.11s-27.19 5.9-44.92 5.9-63.86-10.63-63.86-55.57v-68.58h-48.46v-30.72h48.46v-36.65h59.13v36.65h48.48v30.72h-48.48v59.13s0 29.56 23.66 29.56c23.62 0 24.82-3.55 24.82-3.55Zm-179.71-375.97h68.57v164.33h57.91v-164.33h69.76v-34.29h-196.24v34.29Zm-23.66 8.27 7.1-34.29s-29.56-12.99-81.57-12.99c-50.84 0-132.41 28.38-132.41 105.22 0 75.67 86.3 101.67 139.51 101.67 53.2 0 70.93-8.27 70.93-8.27l-5.91-37.84s-23.65 7.1-63.86 7.1c-39.01-1.18-79.18-31.92-79.18-66.2 1.17-30.74 36.63-65.03 82.76-65.03 35.45 0 62.63 10.63 62.63 10.63Zm-522.56-41.37s96.95-4.72 96.95 52.02c0 48.48-55.55 52.03-55.55 52.03s15.35 2.36 22.46 12.99c5.9 9.46 44.92 80.4 44.92 80.4h-59.13s-9.46-11.83-14.19-20.09c-3.54-8.28-14.19-26.02-14.19-26.02s-8.26-29.55-36.65-29.55c-.72 0-12.26-.45-21.29-.78v76.44h-56.74v-197.44h93.41Zm-36.65 88.68h30.75s42.55-2.38 44.91-28.38c1.19-24.83-41.36-28.38-41.36-28.38h-34.3v56.76Zm237.63 30.73h94.59v-36.65h-94.59v-44.93h102.87v-37.83h-160.77v197.44h161.97v-35.47h-104.06v-42.56h-.01Zm230.54 151.32h57.93v-40.2h-57.93v40.2Zm0 172.62h57.93v-150.14h-57.93v150.14Zm-631.31-245.91h56.74v-197.44h-56.74v197.44Zm-264.84 49.66h118.22s117.05-2.38 115.87 104.03c-1.17 79.21-113.49 91.05-113.49 91.05h-120.59v-195.08h-.01Zm57.94 158.43h37.83s78.02-4.74 78.02-65.03c0-60.3-82.76-66.21-82.76-66.21h-33.09v131.24Zm0-245.92h37.83s78.02-5.92 78.02-65.03c0-61.48-82.76-66.2-82.76-66.2h-33.09v131.23Zm-588.78-40.9v395.58s-229.371-41.38-229.371-198.62c.013-125.4 169.8-180.68 229.371-196.96Zm0-7.38c-137.856-9.97-450.44 54.65-450.44 196.05 0 92.21 165.52 227 435.07 230.54 10.636 0 316.839-11.83 312.118-340.49-3.969-276.051-210.577-324.402-276.645-332.82V1.631c263.39 16.718 470.547 175.122 470.547 367.372 0 203.35-231.735 368.86-516.655 368.86-284.92 0-515.47-165.52-515.47-368.86S230.832.14 515.765.14c8.729 0 17.406.156 26.018.467v264.566h-.013Z"/></svg>
