<svg width="99" height="90" viewBox="0 0 99 90" fill="none" xmlns="http://www.w3.org/2000/svg">
  <g clip-path="url(#clip0_5413_149891)">
    <path d="M96.7299 68.6621H89.9761V81.4801H96.7299V68.6621Z" fill="#E6E6E6" />
    <path d="M95.4449 81.4821H96.7266V76.6641H94.1011L95.4449 81.4821Z" fill="#F0F0F0" />
    <path d="M58.1962 68.6621H51.4424V81.4801H58.1962V68.6621Z" fill="#E6E6E6" />
    <path d="M96.7272 68.6621H57.0762V80.1635H96.7272V68.6621Z" fill="#F0F0F0" />
    <path d="M58.3579 81.4821H57.0762V76.6641H59.7042L58.3579 81.4821Z" fill="#F0F0F0" />
    <path d="M58.395 70.6579V78.0059H70.149V70.6579H58.395Z" fill="#E6E6E6" />
    <path
      d="M65.4342 73.1925H63.1092C62.0982 73.1925 61.1345 72.1604 60.439 70.3379H68.1044C67.4089 72.1604 66.4451 73.1925 65.4342 73.1925Z"
      fill="#F0F0F0" />
    <path d="M71.0254 70.654V78.002H82.7794V70.654H71.0254Z" fill="#E6E6E6" />
    <path
      d="M78.1842 73.1925H75.8592C74.8482 73.1925 73.8845 72.1604 73.189 70.3379H80.8544C80.1589 72.1604 79.1951 73.1925 78.1842 73.1925Z"
      fill="#F0F0F0" />
    <path d="M83.6558 70.654V78.002H95.4097V70.654H83.6558Z" fill="#E6E6E6" />
    <path
      d="M90.8131 73.1925H88.4881C87.4771 73.1925 86.5134 72.1604 85.8179 70.3379H93.4833C92.7878 72.1604 91.824 73.1925 90.8131 73.1925Z"
      fill="#F0F0F0" />
    <path d="M94.7571 6.414H56.1021V39.7578H94.7571V6.414Z" fill="#E6E6E6" />
    <path d="M96.0189 6.414H56.6908V39.7578H96.0189V6.414Z" fill="#F0F0F0" />
    <path d="M94.757 39.7578H56.1021V42.1341H94.757V39.7578Z" fill="#E6E6E6" />
    <path d="M98.1201 39.7578H58.792V42.1341H98.1201V39.7578Z" fill="#F0F0F0" />
    <path d="M94.2524 37.9693V8.20508L58.4565 8.20508V37.9693H94.2524Z" fill="#FAFAFA" />
    <path d="M81.2446 37.9668L84.0738 8.20508H88.9672L86.138 37.9668H81.2446Z" fill="white" />
    <path
      d="M59.2738 27.8804C59.1993 27.8804 59.1396 27.82 59.1396 27.7444V9.36835C59.1396 9.29284 59.1993 9.23242 59.2738 9.23242C59.3483 9.23242 59.4079 9.29284 59.4079 9.36835V27.7419C59.4079 27.8174 59.3483 27.8779 59.2738 27.8779V27.8804Z"
      fill="#F0F0F0" />
    <path d="M87.1909 37.9668L90.0176 8.20508H91.9253L89.0986 37.9668H87.1909Z" fill="white" />
    <path d="M94.2524 37.9693V8.20508H94.0289V37.9693H94.2524Z" fill="#E6E6E6" />
    <path opacity="0.5" d="M96.4361 11.4484H57.7811L57.6172 8.89844H96.2746L96.4361 11.4484Z" fill="#E0E0E0" />
    <path opacity="0.5" d="M96.4362 15.6398H57.7812L57.6173 13.0898H96.2747L96.4362 15.6398Z" fill="#E0E0E0" />
    <path opacity="0.5" d="M96.4361 19.8312H57.7811L57.6172 17.2812H96.2746L96.4361 19.8312Z" fill="#E0E0E0" />
    <path opacity="0.5" d="M96.4363 24.0226H57.7813L57.6174 21.4726H96.2748L96.4363 24.0226Z" fill="#E0E0E0" />
    <path opacity="0.5" d="M96.4361 28.2141H57.7811L57.6172 25.6641H96.2746L96.4361 28.2141Z" fill="#E0E0E0" />
    <path opacity="0.5" d="M96.4363 32.4055H57.7813L57.6174 29.8555H96.2748L96.4363 32.4055Z" fill="#E0E0E0" />
    <path d="M46.6009 50.9592H34.8221V81.4811H46.6009V50.9592Z" fill="#E6E6E6" />
    <path d="M45.4188 81.4822H46.6036V77.3262H44.1743L45.4188 81.4822Z" fill="#F0F0F0" />
    <path d="M28.1405 50.9592H16.3617V81.4811H28.1405V50.9592Z" fill="#E6E6E6" />
    <path d="M46.6035 50.9592H27.1096V78.9311H46.6035V50.9592Z" fill="#F0F0F0" />
    <path d="M45.6846 52.1992H28.0288V59.8693H45.6846V52.1992Z" fill="#E6E6E6" />
    <path
      d="M38.5827 54.5848H35.9224C34.7674 54.5848 33.662 53.6383 32.8672 51.9668H41.6404C40.8456 53.6383 39.7402 54.5848 38.5852 54.5848H38.5827Z"
      fill="#F0F0F0" />
    <path d="M28.2947 81.4822H27.1099V77.3262H29.5367L28.2947 81.4822Z" fill="#F0F0F0" />
    <path d="M45.6846 61.1094H28.0288V68.7795H45.6846V61.1094Z" fill="#E6E6E6" />
    <path
      d="M38.5827 63.493H35.9224C34.7674 63.493 33.662 62.5465 32.8672 60.875H41.6404C40.8456 62.5465 39.7402 63.493 38.5852 63.493H38.5827Z"
      fill="#F0F0F0" />
    <path d="M45.6844 70.0197H28.0286V77.6898H45.6844V70.0197Z" fill="#E6E6E6" />
    <path
      d="M38.5827 72.4051H35.9224C34.7674 72.4051 33.662 71.4586 32.8672 69.7871H41.6404C40.8456 71.4586 39.7402 72.4051 38.5852 72.4051H38.5827Z"
      fill="#F0F0F0" />
    <path
      d="M60.8588 68.6328H67.8238C68.6894 68.6328 69.3911 67.9217 69.3911 67.0444V55.3718C69.3911 54.4946 68.6894 53.7834 67.8238 53.7834H60.8588C59.9932 53.7834 59.2914 54.4946 59.2914 55.3718V67.0444C59.2914 67.9217 59.9932 68.6328 60.8588 68.6328Z"
      fill="#F5F5F5" />
    <path
      d="M85.4993 60.3711C85.4993 60.3711 85.2509 68.6328 75.7026 68.6328C66.1544 68.6328 65.906 60.3711 65.906 60.3711H85.4993Z"
      fill="#F0F0F0" />
    <path
      d="M8.95956 74.8547H9.44641C9.44144 72.7528 9.44641 72.048 9.49857 59.8241C9.58551 37.6696 9.75442 36.3203 9.75442 36.3203L8.59442 46.548C7.85917 57.8732 8.80804 64.6245 8.96204 74.8547H8.95956Z"
      fill="#F0F0F0" />
    <path
      d="M8.8479 81.4808C5.68337 81.4808 3.01563 79.2304 2.36483 76.187C2.19344 75.3815 1.99721 74.5835 1.68921 73.8208L1.63953 73.6974H16.0538L16.0041 73.8208C15.6961 74.5835 15.4999 75.3815 15.3285 76.187C14.6802 79.2304 12.0099 81.4808 8.84542 81.4808H8.8479Z"
      fill="#FAFAFA" />
    <path d="M16.9879 74.4392H0.70819L0.241211 70.8672H17.4549L16.9879 74.4392Z" fill="#F0F0F0" />
    <path
      d="M8.53949 55.0001C11.3836 49.9781 4.0088 48.1808 1.61926 43.7051C-1.25217 47.2418 5.20854 60.8829 8.53949 55.0001Z"
      fill="#F0F0F0" />
    <path
      d="M9.0889 50.8742C7.991 48.3444 13.2718 45.2733 14.412 41.1601C16.5159 43.5339 12.3354 58.3682 9.0889 50.8742Z"
      fill="#F0F0F0" />
    <path
      d="M9.04878 58.5072C9.94299 55.3178 15.0549 57.6186 17.6631 51.625C20.4376 60.0881 6.56981 67.368 9.04878 58.5072Z"
      fill="#F0F0F0" />
    <path
      d="M9.27489 62.3181C9.21527 59.2848 5.96629 61.9757 0.0744035 56.5762C-0.978784 62.1469 9.50093 74.0234 9.27489 62.3181Z"
      fill="#F0F0F0" />
    <path
      d="M53.7284 18.7353C54.4152 14.1162 51.2771 9.80743 46.7192 9.11133C42.1613 8.41524 37.9096 11.5954 37.2227 16.2145C36.5358 20.8336 39.6739 25.1424 44.2318 25.8385C48.7897 26.5346 53.0415 23.3544 53.7284 18.7353Z"
      fill="#00876A" />
    <path
      d="M51.9714 19.8114C51.574 20.9467 50.9158 21.9108 50.0886 22.6635C48.2753 24.3198 45.6424 24.9441 43.1733 24.0555C40.7043 23.1669 39.05 21.0021 38.6725 18.5578C38.4986 17.4477 38.588 16.2772 38.9854 15.1419C40.2597 11.5069 44.1967 9.60891 47.781 10.8978C51.3678 12.1866 53.2407 16.179 51.969 19.8114H51.9714Z"
      fill="white" />
    <path opacity="0.4"
      d="M50.0885 22.6605C48.2752 24.3168 45.6423 24.9411 43.1732 24.0525C40.7042 23.1639 39.0499 20.9991 38.6724 18.5548C40.6943 18.0362 42.8826 18.0967 44.994 18.8569C47.1053 19.6171 48.8416 20.9689 50.0885 22.663V22.6605Z"
      fill="#00876A" />
    <path opacity="0.4"
      d="M49.1597 16.2633C48.5934 17.8819 46.8373 18.7278 45.2401 18.1538C43.6429 17.5799 42.8083 15.8002 43.3746 14.1816C43.941 12.563 45.6971 11.7172 47.2918 12.2911C48.889 12.865 49.7236 14.6447 49.1572 16.2633H49.1597Z"
      fill="#00876A" />
    <path
      d="M14.74 26.4704C18.6291 26.4587 21.7725 23.2542 21.761 19.3128C21.7494 15.3715 18.5873 12.1859 14.6982 12.1976C10.809 12.2093 7.6656 15.4138 7.67714 19.3552C7.68868 23.2965 10.8508 26.4821 14.74 26.4704Z"
      fill="#00876A" />
    <path opacity="0.6"
      d="M14.74 26.4704C18.6291 26.4587 21.7725 23.2542 21.761 19.3128C21.7494 15.3715 18.5873 12.1859 14.6982 12.1976C10.809 12.2093 7.6656 15.4138 7.67714 19.3552C7.68868 23.2965 10.8508 26.4821 14.74 26.4704Z"
      fill="#FAFAFA" />
    <path
      d="M20.1674 17.2862C20.5151 18.2402 20.6045 19.2245 20.4704 20.1634C20.1823 22.2301 18.8086 24.0778 16.7395 24.8556C14.6679 25.6334 12.4398 25.1401 10.8923 23.7656C10.1869 23.1413 9.62057 22.3358 9.27034 21.3818C8.15505 18.3308 9.68764 14.9426 12.6982 13.8123C15.7087 12.6821 19.0521 14.2352 20.1674 17.2862Z"
      fill="white" />
    <path
      d="M20.4701 20.1621C20.182 22.2287 18.8084 24.0764 16.7393 24.8543C14.6677 25.6321 12.4396 25.1387 10.8921 23.7643C11.9229 22.3194 13.3711 21.1589 15.1446 20.4943C16.9156 19.8273 18.7612 19.7518 20.4726 20.1646L20.4701 20.1621Z"
      fill="#263238" />
    <path
      d="M16.4536 16.5309C16.9504 17.8903 16.2673 19.3981 14.926 19.9016C13.5847 20.405 12.0968 19.7128 11.6 18.3534C11.1032 16.9941 11.7863 15.4863 13.1276 14.9828C14.4689 14.4794 15.9568 15.1716 16.4536 16.5309Z"
      fill="#263238" />
    <path
      d="M33.5694 13.9008C36.7074 10.7206 36.7074 5.56453 33.5694 2.38434C30.4313 -0.79584 25.3435 -0.79584 22.2054 2.38434C19.0673 5.56453 19.0673 10.7206 22.2054 13.9008C25.3435 17.081 30.4313 17.081 33.5694 13.9008Z"
      fill="#263238" />
    <path
      d="M34.4598 7.24059C34.6138 8.39098 34.4697 9.51116 34.0897 10.5231C33.26 12.7509 31.2779 14.4626 28.779 14.805C26.2802 15.1499 23.9204 14.0347 22.5344 12.1115C21.901 11.238 21.4688 10.1984 21.3148 9.04799C20.823 5.37025 23.364 1.98452 26.9931 1.48359C30.6221 0.985168 33.963 3.56034 34.4573 7.23807L34.4598 7.24059Z"
      fill="white" />
    <path
      d="M34.0894 10.5188C33.2598 12.7466 31.2776 14.4583 28.7788 14.8007C26.2799 15.1455 23.9202 14.0304 22.5342 12.1072C24.0394 10.7605 25.9372 9.83159 28.0733 9.53958C30.2095 9.24506 32.2836 9.62517 34.0869 10.5188H34.0894Z"
      fill="#00876A" />
    <path
      d="M29.9329 7.67884C30.9207 6.36339 30.6691 4.48552 29.3711 3.48451C28.0731 2.48349 26.2201 2.73839 25.2323 4.05384C24.2446 5.36929 24.4961 7.24715 25.7941 8.24817C27.0922 9.24918 28.9452 8.99428 29.9329 7.67884Z"
      fill="#00876A" />
    <path d="M38.0317 87.7754H25.3735V90.0007H38.0317V87.7754Z" fill="#00876A" />
    <path opacity="0.2" d="M26.5038 87.7754H25.9971V90.0007H26.5038V87.7754Z" fill="black" />
    <path opacity="0.2" d="M27.8671 87.7754H27.3604V90.0007H27.8671V87.7754Z" fill="black" />
    <path opacity="0.2" d="M29.2308 87.7754H28.7241V90.0007H29.2308V87.7754Z" fill="black" />
    <path opacity="0.2" d="M30.5922 87.7754H30.0854V90.0007H30.5922V87.7754Z" fill="black" />
    <path opacity="0.2" d="M31.9559 87.7754H31.4492V90.0007H31.9559V87.7754Z" fill="black" />
    <path opacity="0.2" d="M33.3168 87.7754H32.8101V90.0007H33.3168V87.7754Z" fill="black" />
    <path opacity="0.2" d="M34.6805 87.7754H34.1738V90.0007H34.6805V87.7754Z" fill="black" />
    <path opacity="0.2" d="M36.0443 87.7754H35.5376V90.0007H36.0443V87.7754Z" fill="black" />
    <path opacity="0.2" d="M37.4056 87.7754H36.8989V90.0007H37.4056V87.7754Z" fill="black" />
    <path d="M37.5844 85.5508H24.9263V87.7761H37.5844V85.5508Z" fill="#00876A" />
    <path opacity="0.2" d="M26.0565 85.5508H25.5498V87.7761H26.0565V85.5508Z" fill="black" />
    <path opacity="0.2" d="M27.4203 85.5508H26.9136V87.7761H27.4203V85.5508Z" fill="black" />
    <path opacity="0.2" d="M28.7841 85.5508H28.2773V87.7761H28.7841V85.5508Z" fill="black" />
    <path opacity="0.2" d="M30.1449 85.5508H29.6382V87.7761H30.1449V85.5508Z" fill="black" />
    <path opacity="0.2" d="M31.5087 85.5508H31.002V87.7761H31.5087V85.5508Z" fill="black" />
    <path opacity="0.2" d="M32.87 85.5508H32.3633V87.7761H32.87V85.5508Z" fill="black" />
    <path opacity="0.2" d="M34.2338 85.5508H33.7271V87.7761H34.2338V85.5508Z" fill="black" />
    <path opacity="0.2" d="M35.5971 85.5508H35.0903V87.7761H35.5971V85.5508Z" fill="black" />
    <path opacity="0.2" d="M36.9584 85.5508H36.4517V87.7761H36.9584V85.5508Z" fill="black" />
    <path d="M37.9396 83.3261H25.2815V85.5514H37.9396V83.3261Z" fill="#00876A" />
    <path opacity="0.2" d="M26.414 83.3261H25.9073V85.5514H26.414V83.3261Z" fill="black" />
    <path opacity="0.2" d="M27.7752 83.3261H27.2684V85.5514H27.7752V83.3261Z" fill="black" />
    <path opacity="0.2" d="M29.1392 83.3261H28.6325V85.5514H29.1392V83.3261Z" fill="black" />
    <path opacity="0.2" d="M30.5029 83.3261H29.9962V85.5514H30.5029V83.3261Z" fill="black" />
    <path opacity="0.2" d="M31.864 83.3261H31.3573V85.5514H31.864V83.3261Z" fill="black" />
    <path opacity="0.2" d="M33.2277 83.3261H32.7209V85.5514H33.2277V83.3261Z" fill="black" />
    <path opacity="0.2" d="M34.5889 83.3261H34.0822V85.5514H34.5889V83.3261Z" fill="black" />
    <path opacity="0.2" d="M35.9525 83.3261H35.4458V85.5514H35.9525V83.3261Z" fill="black" />
    <path opacity="0.2" d="M37.3162 83.3261H36.8094V85.5514H37.3162V83.3261Z" fill="black" />
    <path
      d="M32.4337 82.1118C35.8678 81.309 38.0095 77.837 37.2173 74.3568C36.4251 70.8766 32.999 68.7062 29.565 69.509C26.1309 70.3119 23.9892 73.7839 24.7814 77.2641C25.5736 80.7442 28.9997 82.9146 32.4337 82.1118Z"
      fill="#00876A" />
    <path opacity="0.2"
      d="M35.545 78.6843C33.9751 81.2268 30.6715 81.9996 28.1602 80.4112C25.649 78.8228 24.8889 75.4723 26.4562 72.9273C28.0261 70.3849 31.3297 69.6121 33.841 71.2005C36.3497 72.7889 37.1123 76.1393 35.545 78.6843Z"
      fill="black" />
    <path
      d="M32.2734 81.2259C35.1073 80.5634 36.8747 77.6982 36.2209 74.8263C35.5672 71.9544 32.74 70.1633 29.9061 70.8258C27.0722 71.4883 25.3049 74.3535 25.9586 77.2254C26.6123 80.0973 29.4396 81.8884 32.2734 81.2259Z"
      fill="#00876A" />
    <path
      d="M32.8479 76.9743L32.0581 78.2581C31.996 78.3588 31.9065 78.4217 31.7873 78.4469C31.6681 78.4746 31.5588 78.4544 31.4569 78.3915L30.3441 77.6867L29.7877 78.5904C29.7232 78.6936 29.6337 78.7565 29.517 78.7842C29.4002 78.8094 29.2934 78.7917 29.1941 78.7288C29.0898 78.6634 29.0227 78.5702 28.9954 78.4519C28.968 78.3336 28.9854 78.2228 29.0475 78.1196L29.6114 77.2084L28.506 76.5086C28.4067 76.4456 28.3446 76.355 28.3148 76.2392C28.2874 76.1209 28.3048 76.0102 28.3669 75.9069C28.429 75.8037 28.5209 75.7383 28.6352 75.7131C28.7495 75.6854 28.8588 75.7056 28.9606 75.7685L31.5439 77.4047L31.8718 76.8711L29.2959 75.2399C29.1941 75.1744 29.1295 75.0863 29.1022 74.9705C29.0749 74.8547 29.0947 74.744 29.1593 74.6382L29.9467 73.3595C30.0113 73.2563 30.0982 73.1908 30.215 73.1656C30.3292 73.1379 30.4385 73.1581 30.5404 73.221L31.6358 73.9158L32.1922 73.0121C32.2543 72.9114 32.3412 72.8459 32.4555 72.8157C32.5697 72.7855 32.684 72.8082 32.8008 72.8812C32.9001 72.9441 32.9622 73.0322 32.9895 73.1505C33.0169 73.2688 32.997 73.3771 32.9349 73.4803L32.3785 74.384L33.5012 75.0939C33.6031 75.1593 33.6676 75.2499 33.6975 75.3708C33.7273 75.4916 33.7099 75.6024 33.6478 75.7005C33.5832 75.8037 33.4913 75.8692 33.3721 75.8969C33.2528 75.9246 33.141 75.9069 33.0392 75.8415L30.4559 74.2053L30.1305 74.7339L32.7064 76.3651C32.8082 76.4305 32.8728 76.5212 32.9026 76.642C32.9324 76.7628 32.915 76.8736 32.8529 76.9717L32.8479 76.9743Z"
      fill="#FAFAFA" />
    <path opacity="0.4"
      d="M34.3853 70.3218C31.3971 68.4288 27.4601 69.3501 25.5922 72.3784C25.0532 73.2544 24.7451 74.2084 24.6508 75.17H37.3536C37.1648 73.2468 36.129 71.4243 34.3853 70.3218Z"
      fill="black" />
    <path opacity="0.2"
      d="M54.2564 18.8711H7.93599C6.23201 18.8711 5.2285 20.8119 6.19972 22.2317L11.3713 29.8011C11.7662 30.3775 12.4145 30.7224 13.1075 30.7224H49.0823C49.7754 30.7224 50.4261 30.3775 50.8186 29.8011L55.9902 22.2317C56.9614 20.8119 55.9579 18.8711 54.2539 18.8711H54.2564Z"
      fill="#00876A" />
    <path d="M54.5173 28.1719H7.67529L22.9093 61.425H39.2833L54.5173 28.1719Z" fill="#00876A" />
    <path d="M12.9328 41.1479L12.7075 41.2539L14.2585 44.64L14.4838 44.534L12.9328 41.1479Z" fill="#00876A" />
    <path d="M14.9445 45.5385L14.7192 45.6445L15.445 47.2291L15.6703 47.1231L14.9445 45.5385Z" fill="#00876A" />
    <path opacity="0.3" d="M54.5173 28.1719H7.67529L22.9093 61.425H39.2833L54.5173 28.1719Z" fill="black" />
    <path opacity="0.2" d="M21.3495 28.1719H12.4868L25.9075 61.425H28.7764L21.3495 28.1719Z" fill="black" />
    <path
      d="M55.9701 21.7734H6.22439C5.57002 21.7734 5.03955 22.311 5.03955 22.9742V26.9691C5.03955 27.6322 5.57002 28.1698 6.22439 28.1698H55.9701C56.6245 28.1698 57.1549 27.6322 57.1549 26.9691V22.9742C57.1549 22.311 56.6245 21.7734 55.9701 21.7734Z"
      fill="#00876A" />
    <path
      d="M36.8769 73.4841H25.3142C24.4547 73.4841 23.7393 72.812 23.6748 71.941L22.9072 61.4238H39.2813L38.5138 71.941C38.4492 72.8095 37.7363 73.4841 36.8744 73.4841H36.8769Z"
      fill="#00876A" />
    <path opacity="0.2"
      d="M36.8769 73.4841H25.3142C24.4547 73.4841 23.7393 72.812 23.6748 71.941L22.9072 61.4238H39.2813L38.5138 71.941C38.4492 72.8095 37.7363 73.4841 36.8744 73.4841H36.8769Z"
      fill="black" />
    <path d="M68.5543 87.8958H66.5199L66.3833 83.123H68.4176L68.5543 87.8958Z" fill="#FFB573" />
    <path opacity="0.2" d="M66.3857 83.125L66.4553 85.5844H68.4896L68.4201 83.125H66.3857Z" fill="black" />
    <path d="M84.2772 80.407L82.4937 81.3988L79.6521 77.5348L81.4356 76.543L84.2772 80.407Z" fill="#FFB573" />
    <path opacity="0.2" d="M81.4355 76.543L79.6545 77.5373L81.1201 79.5285L82.901 78.5342L81.4355 76.543Z"
      fill="black" />
    <path
      d="M76.5348 29.4566C74.7166 28.1879 73.8944 26.9016 73.7355 25.3384C74.041 26.9922 75.0172 28.3087 77.1981 29.4189C77.2154 29.4289 77.2353 29.4314 77.2527 29.4314C77.2974 29.4314 77.3421 29.4063 77.3645 29.361C77.3943 29.298 77.3694 29.2225 77.3098 29.1923C74.2422 27.6316 73.6485 25.721 73.9292 22.8765C74.0087 22.5039 74.108 22.1162 74.2248 21.7085C75.2184 18.2699 69.6842 17.5801 67.9553 18.295C63.7004 20.0571 65.0069 24.9507 66.2091 26.7984C67.4114 28.6435 63.37 29.8845 65.6304 35.1607C67.8908 40.4395 75.4121 40.3061 77.5632 37.5647C79.7168 34.8234 79.5777 31.5812 76.5324 29.4541L76.5348 29.4566Z"
      fill="#263238" />
    <path
      d="M65.4342 31.5849C65.4094 31.9297 65.3796 32.2268 65.3373 32.5414C65.2976 32.8511 65.2504 33.1607 65.2007 33.4678C65.1014 34.0845 64.9647 34.6937 64.8207 35.3004C64.5226 36.5137 64.1376 37.7119 63.6135 38.8673L63.5166 39.0838C63.4794 39.1593 63.4645 39.2072 63.3875 39.3532C63.2558 39.6024 63.0323 39.8516 62.7739 40.0152C62.5156 40.1839 62.2399 40.2594 61.9989 40.2946C61.7555 40.3274 61.5369 40.3198 61.3382 40.2946C60.5483 40.1864 59.9646 39.8969 59.3908 39.6074C58.2681 38.9907 57.2944 38.2707 56.3679 37.4426L56.9814 36.6043C57.4757 36.8913 57.9924 37.1782 58.504 37.44C59.0157 37.7069 59.5349 37.9485 60.049 38.1474C60.5533 38.3463 61.0898 38.5023 61.4872 38.5149C61.6835 38.5225 61.7977 38.4621 61.7654 38.4595C61.753 38.4595 61.7381 38.4772 61.7406 38.4595L61.8673 38.1197C62.2697 37.0599 62.5702 35.9498 62.8236 34.8246C62.9453 34.2607 63.0447 33.6918 63.1415 33.1229C63.2359 32.5591 63.3105 31.965 63.3676 31.4338L65.4417 31.5849H65.4342Z"
      fill="#FFB573" />
    <path
      d="M64.0185 29.0604C63.1814 29.2768 62.5952 32.7733 62.5952 32.7733L64.9053 34.3642C64.9053 34.3642 67.1209 30.8375 66.4751 29.9036C65.8045 28.932 65.2431 28.7457 64.021 29.0604H64.0185Z"
      fill="#00876A" />
    <path opacity="0.2"
      d="M64.0185 29.0604C63.1814 29.2768 62.5952 32.7733 62.5952 32.7733L64.9053 34.3642C64.9053 34.3642 67.1209 30.8375 66.4751 29.9036C65.8045 28.932 65.2431 28.7457 64.021 29.0604H64.0185Z"
      fill="black" />
    <path opacity="0.2" d="M64.0955 29.8418L63.4497 33.366L64.7488 34.2571L64.0955 29.8418Z" fill="black" />
    <path
      d="M57.3194 36.745L56.075 34.7715L55.3745 36.7425C55.3745 36.7425 56.2364 37.7368 57.0611 37.5405L57.3194 36.7425V36.745Z"
      fill="#FFB573" />
    <path d="M54.7506 34.0312L53.9235 35.5769L55.3741 36.7424L56.077 34.7713L54.7506 34.0312Z" fill="#FFB573" />
    <path
      d="M82.112 81.158L83.9302 79.7533C83.9973 79.703 84.0842 79.708 84.1439 79.7659L85.4454 81.0623C85.5796 81.1957 85.5597 81.4399 85.4057 81.5532C84.7648 82.0314 84.4295 82.2303 83.6322 82.847C83.1404 83.2271 82.4622 83.8338 81.7816 84.3574C81.1184 84.8709 80.5546 84.229 80.7906 83.9496C81.8512 82.6935 81.7643 82.1598 81.9183 81.4651C81.9456 81.3392 82.0151 81.231 82.112 81.1554V81.158Z"
      fill="#263238" />
    <path
      d="M66.4499 87.6562H68.7351C68.817 87.6562 68.8866 87.7141 68.8965 87.7972L69.1573 89.6298C69.1847 89.8186 69.0232 89.9998 68.8319 89.9973C68.0346 89.9822 67.6521 89.9369 66.6461 89.9369C66.0276 89.9369 64.2516 90.0023 63.3996 90.0023C62.5476 90.0023 62.5004 89.1465 62.8556 89.0684C64.4503 88.7211 65.573 88.2428 66.1096 87.7846C66.2064 87.7016 66.3281 87.6588 66.4499 87.6588V87.6562Z"
      fill="#263238" />
    <path
      d="M64.0182 29.0625C64.0182 29.0625 63.0495 29.4073 64.9895 41.5003H73.2485C73.1094 38.0944 73.1069 35.9925 74.7116 29.0021C74.7116 29.0021 72.9803 28.6194 71.2043 28.5338C69.8133 28.4659 68.6756 28.4206 67.4535 28.5338C65.8414 28.6824 64.0158 29.0625 64.0158 29.0625H64.0182Z"
      fill="#00876A" />
    <path opacity="0.2"
      d="M64.0182 29.0625C64.0182 29.0625 63.0495 29.4073 64.9895 41.5003H73.2485C73.1094 38.0944 73.1069 35.9925 74.7116 29.0021C74.7116 29.0021 72.9803 28.6194 71.2043 28.5338C69.8133 28.4659 68.6756 28.4206 67.4535 28.5338C65.8414 28.6824 64.0158 29.0625 64.0158 29.0625H64.0182Z"
      fill="black" />
    <path
      d="M71.2068 28.5338C69.8158 28.4659 68.6782 28.4206 67.4561 28.5338C67.0065 28.5741 66.5395 28.6345 66.0998 28.6975C65.9086 29.435 65.9458 30.4671 66.6861 31.8063L67.1133 32.5791L67.9231 32.2493C68.5242 32.0026 71.567 30.7012 72.5456 29.0952L72.799 28.6798C72.3072 28.6144 71.7607 28.5615 71.2068 28.5338Z"
      fill="white" />
    <path
      d="M71.2071 28.5372C70.3625 27.7216 70.5985 25.4812 70.8345 24.2578L68.5319 26.249C68.7654 27.198 68.8001 28.2099 67.4563 28.5372C67.3744 28.5472 67.2949 28.5548 67.2129 28.5623C66.9124 29.1388 66.8378 30.0224 67.5557 31.3188C67.5557 31.3188 70.8469 29.9771 71.7014 28.5699C71.5399 28.5573 71.3735 28.5472 71.2071 28.5372Z"
      fill="#FFB573" />
    <path opacity="0.2"
      d="M69.8979 25.0684L68.5342 26.2464C68.5913 26.4705 68.6335 26.6996 68.6509 26.9211C69.1651 26.8456 69.8705 26.2741 69.9252 25.7279C69.9525 25.456 69.9401 25.1942 69.8979 25.0684Z"
      fill="black" />
    <path
      d="M72.3545 22.3005C71.7534 24.2539 71.5373 25.0922 70.3028 25.8625C68.4448 27.0229 66.2093 25.8448 66.2242 23.7505C66.2366 21.865 67.2203 18.9878 69.3266 18.6782C71.4032 18.3711 72.9557 20.3496 72.3545 22.3005Z"
      fill="#FFB573" />
    <path
      d="M72.7422 19.459C72.0318 18.7944 71.1798 18.4974 70.3253 18.4546C70.2334 18.3388 70.0297 18.2784 69.8807 18.2482C68.9467 18.0569 67.8836 18.3111 67.4141 18.9127C66.9869 19.4615 68.4474 19.7837 69.5006 19.3457C69.6497 21.0272 71.0531 24.486 72.387 24.1738C74.1332 23.766 74.1481 20.7755 72.7422 19.4565V19.459Z"
      fill="#263238" />
    <path
      d="M64.9897 41.5C64.9897 41.5 63.3851 57.3764 63.5192 63.6621C63.6583 70.1994 66.0205 85.1092 66.0205 85.1092H68.7702C68.7702 85.1092 68.3355 70.582 68.579 64.1605C68.8447 57.1625 71.0381 41.5 71.0381 41.5H64.9897Z"
      fill="#263238" />
    <path d="M69.0114 85.2057H65.7848L65.5488 84.1635L69.1605 84.0352L69.0114 85.2057Z" fill="#00876A" />
    <path opacity="0.2"
      d="M68.554 45.4486C66.5246 49.5845 68.1466 57.1287 68.8645 59.9355C69.2321 55.7191 69.8531 50.5662 70.335 46.7827C70.027 44.6405 69.4879 43.543 68.554 45.4486Z"
      fill="black" />
    <path
      d="M67.1729 41.5C67.1729 41.5 69.0433 58.0057 70.4566 63.3046C72.1333 69.5953 80.4619 79.3497 80.4619 79.3497L82.8912 77.9954C82.8912 77.9954 77.1136 67.0453 75.8294 63.73C73.0921 56.6565 75.4345 46.1142 73.2486 41.5H67.1704H67.1729Z"
      fill="#263238" />
    <path d="M83.2413 77.9695L80.2283 79.6486L79.3862 78.8657L82.8439 76.7285L83.2413 77.9695Z" fill="#00876A" />
    <path
      d="M69.1082 22.0492C69.0684 22.2103 68.9517 22.321 68.8474 22.2933C68.743 22.2682 68.6909 22.1146 68.7306 21.9535C68.7704 21.7924 68.8871 21.6816 68.9914 21.7093C69.0957 21.7345 69.1479 21.8881 69.1082 22.0492Z"
      fill="#263238" />
    <path
      d="M67.3071 21.5982C67.2674 21.7593 67.1507 21.8701 67.0463 21.8424C66.942 21.8147 66.8898 21.6636 66.9296 21.5025C66.9693 21.3414 67.0861 21.2307 67.1904 21.2584C67.2947 21.2835 67.3469 21.4371 67.3071 21.5982Z"
      fill="#263238" />
    <path d="M67.2351 21.2806L66.8799 21.0742C66.8799 21.0742 67.0016 21.4266 67.2351 21.2806Z" fill="#263238" />
    <path
      d="M67.7913 22.0293C67.7913 22.0293 67.3517 22.6561 66.9741 22.9179C67.1356 23.1696 67.5156 23.1671 67.5156 23.1671L67.7913 22.0293Z"
      fill="#ED893E" />
    <path
      d="M68.231 24.0152C68.154 24.0077 68.0745 23.9951 67.9926 23.975C67.9677 23.9674 67.9503 23.9422 67.9578 23.9171C67.9652 23.8919 67.9926 23.8743 68.0149 23.8818C68.7154 24.0555 69.16 23.6427 69.165 23.6402C69.1849 23.6225 69.2147 23.6225 69.2321 23.6402C69.2494 23.6603 69.2494 23.6905 69.2321 23.7081C69.2147 23.7258 68.8421 24.0706 68.231 24.0152Z"
      fill="#263238" />
    <path
      d="M72.4438 24.2522C72.2103 24.6046 71.8377 24.8136 71.4999 24.8765C70.9907 24.9696 70.7845 24.4964 70.9658 24.0357C71.1298 23.6204 71.5918 23.0716 72.0836 23.1874C72.568 23.3007 72.7095 23.8494 72.4413 24.2522H72.4438Z"
      fill="#FFB573" />
    <path
      d="M69.9199 21.8569C69.8801 21.8544 69.8429 21.8242 69.8354 21.7814C69.736 21.3409 69.207 21.1169 69.1995 21.1143C69.1498 21.0942 69.1275 21.0363 69.1474 20.986C69.1672 20.9356 69.2244 20.913 69.274 20.9331C69.2989 20.9432 69.9025 21.1999 70.0242 21.7361C70.0366 21.789 70.0043 21.8418 69.9521 21.8544C69.9422 21.8544 69.9323 21.8569 69.9223 21.8544L69.9199 21.8569Z"
      fill="#263238" />
    <path
      d="M66.972 20.6213C66.9397 20.6188 66.9099 20.5987 66.8925 20.566C66.8701 20.5181 66.89 20.4602 66.9372 20.4351C67.4166 20.201 67.8016 20.43 67.8165 20.4401C67.8612 20.4678 67.8761 20.5282 67.8488 20.5735C67.8215 20.6188 67.7619 20.6339 67.7171 20.6062C67.7047 20.5987 67.4042 20.4225 67.0216 20.6088C67.0067 20.6163 66.9893 20.6188 66.972 20.6188V20.6213Z"
      fill="#263238" />
    <path
      d="M75.6657 31.4024C75.9166 32.651 76.0954 33.8794 76.2395 35.1355C76.3165 35.7598 76.3687 36.3891 76.4109 37.0235C76.4333 37.3381 76.4482 37.6578 76.4606 37.9775L76.4705 38.4583V38.5791L76.473 38.6547C76.473 38.7151 76.4705 38.7755 76.4655 38.8359C76.4432 39.0927 76.3091 39.3973 76.1228 39.5861C75.939 39.7799 75.7502 39.8755 75.5987 39.9385C75.4496 39.9939 75.3105 40.0291 75.1938 40.0467C74.9553 40.0845 74.7566 40.0845 74.5678 40.0769C74.1952 40.0593 73.8599 40.009 73.537 39.9485C72.8912 39.8202 72.2801 39.6515 71.6815 39.4602C71.0829 39.2664 70.4967 39.0574 69.9154 38.8359C69.3367 38.6043 68.7654 38.3752 68.1965 38.1084L68.5418 37.1242C69.1255 37.2676 69.7167 37.4187 70.3029 37.5521C70.8891 37.6956 71.4778 37.8265 72.0615 37.9398C72.6453 38.053 73.229 38.1588 73.7904 38.2167C74.0686 38.2469 74.3443 38.2645 74.5802 38.2544C74.697 38.2494 74.8038 38.2368 74.8659 38.2167C74.9007 38.2091 74.9081 38.199 74.9032 38.2016C74.8907 38.2041 74.8361 38.2217 74.7591 38.2997C74.6796 38.3778 74.6076 38.5338 74.6026 38.637C74.5976 38.6572 74.5976 38.6798 74.5976 38.7025C74.5976 38.7126 74.5951 38.6723 74.5927 38.6622L74.5827 38.5515L74.543 38.1059L74.4436 37.2098C74.3741 36.6106 74.2896 36.009 74.2052 35.4074C74.1207 34.8058 74.0214 34.2041 73.922 33.6025C73.8301 33.0034 73.7208 32.3942 73.6214 31.8077L75.6632 31.4049L75.6657 31.4024Z"
      fill="#FFB573" />
    <path
      d="M74.7142 29.0015C75.5414 29.2557 76.535 32.143 76.535 32.143L73.3257 34.469C73.3257 34.469 72.1558 32.0574 72.5035 30.975C72.8662 29.8473 73.7703 28.7095 74.7167 29.0015H74.7142Z"
      fill="#00876A" />
    <path opacity="0.2"
      d="M74.7142 29.0015C75.5414 29.2557 76.535 32.143 76.535 32.143L73.3257 34.469C73.3257 34.469 72.1558 32.0574 72.5035 30.975C72.8662 29.8473 73.7703 28.7095 74.7167 29.0015H74.7142Z"
      fill="black" />
    <path
      d="M81.4242 82.0235C81.4242 82.0235 81.4068 82.0235 81.3993 82.0235C81.3074 82.016 81.2329 81.9631 81.1808 81.8675C81.141 81.7945 81.1559 81.7366 81.1758 81.6988C81.3 81.4672 82.0327 81.4093 82.1147 81.4043C82.1346 81.4043 82.152 81.4144 82.1619 81.4295C82.1718 81.4471 82.1694 81.4672 82.1569 81.4823C81.9905 81.6887 81.68 82.0235 81.4267 82.0235H81.4242ZM82.0054 81.51C81.7123 81.5427 81.3248 81.6233 81.2602 81.7441C81.2528 81.7592 81.2453 81.7819 81.2652 81.8171C81.3025 81.8851 81.3497 81.9203 81.4093 81.9254C81.5484 81.938 81.767 81.7844 82.0054 81.51Z"
      fill="#00876A" />
    <path
      d="M82.0495 81.5042C81.7962 81.5042 81.3341 81.3833 81.2422 81.1895C81.2224 81.1492 81.2025 81.0687 81.2894 80.9806C81.3441 80.9252 81.4136 80.9 81.4906 80.9076C81.7862 80.9302 82.1414 81.4009 82.1563 81.4211C82.1663 81.4337 82.1687 81.4538 82.1613 81.4689C82.1538 81.484 82.1414 81.4966 82.124 81.4991C82.1017 81.5016 82.0768 81.5042 82.0495 81.5042ZM81.4683 81.0057C81.4236 81.0057 81.3888 81.0208 81.3565 81.051C81.3118 81.0938 81.3192 81.124 81.3292 81.1467C81.3913 81.2776 81.7738 81.4009 82.0222 81.406C81.8955 81.2549 81.6595 81.0183 81.4832 81.0057C81.4782 81.0057 81.4732 81.0057 81.4683 81.0057Z"
      fill="#00876A" />
    <path
      d="M65.6874 88.0173C65.4862 88.0173 65.2999 87.9846 65.1931 87.8915C65.126 87.831 65.0987 87.7505 65.1062 87.6548C65.1111 87.5969 65.1385 87.5516 65.1881 87.5239C65.4365 87.3855 66.2488 87.8059 66.3407 87.8537C66.3581 87.8638 66.368 87.8839 66.3655 87.904C66.363 87.9242 66.3481 87.9418 66.3283 87.9443C66.1544 87.9796 65.9135 88.0173 65.6874 88.0173ZM65.3248 87.5919C65.2875 87.5919 65.2577 87.5969 65.2353 87.6095C65.2155 87.6196 65.2055 87.6372 65.203 87.6624C65.1981 87.7278 65.2155 87.7782 65.2577 87.8185C65.3819 87.9317 65.7147 87.9494 66.1668 87.8738C65.8886 87.7379 65.516 87.5919 65.3248 87.5919Z"
      fill="#00876A" />
    <path
      d="M66.3183 87.9451C66.3183 87.9451 66.3059 87.9451 66.2985 87.9401C66.055 87.8293 65.5756 87.3838 65.6129 87.1522C65.6228 87.0968 65.6601 87.0288 65.7942 87.0137C65.8936 87.0037 65.983 87.0314 66.06 87.0968C66.3158 87.3133 66.363 87.8671 66.3655 87.8897C66.3655 87.9074 66.3581 87.9225 66.3457 87.9325C66.3382 87.9376 66.3283 87.9426 66.3183 87.9426V87.9451ZM65.834 87.1094C65.834 87.1094 65.8141 87.1094 65.8042 87.1094C65.7172 87.1195 65.7098 87.1547 65.7098 87.1648C65.6874 87.3057 66.0128 87.6556 66.2587 87.8067C66.2339 87.6456 66.1668 87.3133 66.0004 87.1698C65.9507 87.127 65.8961 87.1069 65.834 87.1069V87.1094Z"
      fill="#00876A" />
    <path d="M69.0334 21.7279L68.6782 21.5215C68.6782 21.5215 68.7999 21.8739 69.0334 21.7279Z" fill="#263238" />
    <path
      d="M73.3728 41.0102L73.5839 41.7603C73.6137 41.8182 73.5442 41.8787 73.4498 41.8787H64.9498C64.8753 41.8787 64.8132 41.8409 64.8082 41.7931L64.7337 41.0429C64.7287 40.9901 64.7933 40.9473 64.8753 40.9473H73.2387C73.3008 40.9473 73.3554 40.9724 73.3728 41.0102Z"
      fill="#00876A" />
    <path
      d="M72.2498 41.9569H72.4734C72.5181 41.9569 72.5529 41.9342 72.5479 41.904L72.4436 40.9298C72.4411 40.9021 72.4014 40.877 72.3566 40.877H72.1331C72.0884 40.877 72.0536 40.8996 72.0586 40.9298L72.1629 41.904C72.1654 41.9317 72.2051 41.9569 72.2498 41.9569Z"
      fill="#263238" />
    <path
      d="M65.5785 41.9569H65.802C65.8467 41.9569 65.8815 41.9342 65.8765 41.904L65.7722 40.9298C65.7697 40.9021 65.73 40.877 65.6853 40.877H65.4617C65.417 40.877 65.3822 40.8996 65.3872 40.9298L65.4915 41.904C65.494 41.9317 65.5337 41.9569 65.5785 41.9569Z"
      fill="#263238" />
    <path
      d="M68.9144 41.9569H69.1379C69.1827 41.9569 69.2174 41.9342 69.2125 41.904L69.1081 40.9298C69.1057 40.9021 69.0659 40.877 69.0212 40.877H68.7976C68.7529 40.877 68.7182 40.8996 68.7231 40.9298L68.8275 41.904C68.8299 41.9317 68.8697 41.9569 68.9144 41.9569Z"
      fill="#263238" />
    <path
      d="M61.0776 44.345C64.772 44.345 67.7668 41.3099 67.7668 37.566C67.7668 33.822 64.772 30.787 61.0776 30.787C57.3832 30.787 54.3884 33.822 54.3884 37.566C54.3884 41.3099 57.3832 44.345 61.0776 44.345Z"
      fill="#00876A" />
    <path opacity="0.4"
      d="M61.0776 44.345C64.772 44.345 67.7668 41.3099 67.7668 37.566C67.7668 33.822 64.772 30.787 61.0776 30.787C57.3832 30.787 54.3884 33.822 54.3884 37.566C54.3884 41.3099 57.3832 44.345 61.0776 44.345Z"
      fill="black" />
    <path
      d="M55.605 36.8137C55.4758 37.7702 55.5951 38.7041 55.913 39.5449C56.6035 41.4001 58.2553 42.8249 60.3344 43.1093C62.4135 43.3963 64.3782 42.4674 65.5333 40.8665C66.0599 40.139 66.42 39.273 66.5492 38.3165C66.9591 35.2529 64.8427 32.4361 61.8198 32.0182C58.7968 31.6029 56.0173 33.7476 55.605 36.8111V36.8137Z"
      fill="#00876A" />
    <path
      d="M55.9131 39.5457C56.6036 41.4009 58.2554 42.8257 60.3345 43.1102C62.4135 43.3971 64.3783 42.4683 65.5334 40.8673C64.2814 39.7446 62.7017 38.9743 60.9207 38.7276C59.1422 38.4834 57.4159 38.8006 55.9131 39.5432V39.5457Z"
      fill="white" />
    <path
      d="M63.6527 36.4993C64.104 35.2012 63.4315 33.778 62.1505 33.3206C60.8696 32.8632 59.4653 33.5448 59.014 34.8429C58.5627 36.141 59.2352 37.5642 60.5161 38.0215C61.797 38.4789 63.2013 37.7974 63.6527 36.4993Z"
      fill="white" />
    <path
      d="M68.7777 37.1704L67.2402 35.582L67.0439 37.6688C67.0439 37.6688 68.1245 38.414 68.8721 38.0162L68.7777 37.1704Z"
      fill="#FFB573" />
    <path d="M65.5437 35.3555L65.4741 37.11L67.044 37.6663L67.2377 35.5795L65.5437 35.3555Z" fill="#FFB573" />
  </g>
  <defs>
    <clipPath id="clip0_5413_149891">
      <rect width="98.1203" height="90" fill="white" />
    </clipPath>
  </defs>
</svg>
