<svg width="131" height="131" viewBox="0 0 131 131" fill="none" xmlns="http://www.w3.org/2000/svg">
  <mask id="mask0_2355_53394" style="mask-type:luminance" maskUnits="userSpaceOnUse" x="0" y="0" width="131" height="131">
    <path d="M131 0H0V131H131V0Z" fill="white"/>
  </mask>
  <g mask="url(#mask0_2355_53394)">
    <path d="M65.5016 117.463C94.4395 117.463 117.902 94.001 117.902 65.0631C117.902 36.1252 94.4395 12.6631 65.5016 12.6631C36.5637 12.6631 13.1016 36.1252 13.1016 65.0631C13.1016 94.001 36.5637 117.463 65.5016 117.463Z" fill="url(#paint0_linear_2355_53394)"/>
    <path d="M86.2591 27.7539H45.8499C41.9913 27.7539 38.8633 30.8819 38.8633 34.7406V88.4637C38.8633 92.3223 41.9913 95.4503 45.8499 95.4503H86.2591C90.1177 95.4503 93.2457 92.3223 93.2457 88.4637V34.7406C93.2457 30.8819 90.1177 27.7539 86.2591 27.7539Z" fill="white"/>
    <path d="M63.3616 36.4873H45.8076C44.6259 36.4873 43.668 37.4453 43.668 38.627C43.668 39.8087 44.6259 40.7666 45.8076 40.7666H63.3616C64.5433 40.7666 65.5013 39.8087 65.5013 38.627C65.5013 37.4453 64.5433 36.4873 63.3616 36.4873Z" fill="#D5D5D5"/>
    <path d="M85.195 48.627H45.8076C44.6259 48.627 43.668 49.5849 43.668 50.7666C43.668 51.9483 44.6259 52.9063 45.8076 52.9063H85.195C86.3767 52.9063 87.3346 51.9483 87.3346 50.7666C87.3346 49.5849 86.3767 48.627 85.195 48.627Z" fill="#D5D5D5"/>
    <path d="M85.195 60.7666H45.8076C44.6259 60.7666 43.668 61.7246 43.668 62.9063C43.668 64.088 44.6259 65.0459 45.8076 65.0459H85.195C86.3767 65.0459 87.3346 64.088 87.3346 62.9063C87.3346 61.7246 86.3767 60.7666 85.195 60.7666Z" fill="#D5D5D5"/>
    <path d="M85.195 72.9053H45.8076C44.6259 72.9053 43.668 73.8632 43.668 75.0449C43.668 76.2266 44.6259 77.1846 45.8076 77.1846H85.195C86.3767 77.1846 87.3346 76.2266 87.3346 75.0449C87.3346 73.8632 86.3767 72.9053 85.195 72.9053Z" fill="#D5D5D5"/>
    <path d="M45.8076 85.0449H85.195C86.3783 85.0449 87.3346 86.0012 87.3346 87.1846C87.3346 88.368 86.3783 89.3243 85.195 89.3243H45.8076C44.6243 89.3243 43.668 88.368 43.668 87.1846C43.668 86.0012 44.6243 85.0449 45.8076 85.0449Z" fill="#D5D5D5"/>
    <path d="M125.828 20.2695H99.5928C98.3701 20.2695 97.3789 21.3132 97.3789 22.597V35.5747C97.3789 36.8629 98.3701 37.9065 99.5928 37.9065H125.828C127.05 37.9065 128.042 36.8629 128.042 35.5747V22.597C128.042 21.3088 127.05 20.2695 125.828 20.2695Z" fill="white"/>
    <path d="M103.929 31.8767C105.374 31.8767 106.549 30.7021 106.549 29.2567C106.549 27.8114 105.374 26.6367 103.929 26.6367C102.483 26.6367 101.309 27.8114 101.309 29.2567C101.309 30.7021 102.483 31.8767 103.929 31.8767Z" fill="#CCC6D9"/>
    <path d="M112.663 26.6367H121.396C122.842 26.6367 124.016 27.8114 124.016 29.2567C124.016 30.7021 122.842 31.8767 121.396 31.8767H112.663C111.218 31.8767 110.043 30.7021 110.043 29.2567C110.043 27.8114 111.218 26.6367 112.663 26.6367Z" fill="#D5D5D5"/>
    <path fill-rule="evenodd" clip-rule="evenodd" d="M80.8342 98.4945C86.4584 98.4945 91.6853 96.7915 96.0302 93.8789L113.803 110.843L120.248 103.363L103.1 86.9927C106.266 82.5343 108.13 77.0847 108.13 71.2028C108.13 56.1291 95.9123 43.9111 80.8385 43.9111C65.7648 43.9111 53.5469 56.1291 53.5469 71.2028C53.5469 86.2765 65.7648 98.4945 80.8385 98.4945H80.8342ZM104.113 71.2028C104.113 83.9622 93.7682 94.3068 81.0088 94.3068C68.2494 94.3068 57.9048 83.9622 57.9048 71.2028C57.9048 58.4434 68.2494 48.0988 81.0088 48.0988C93.7682 48.0988 104.113 58.4434 104.113 71.2028Z" fill="#CCC6D9"/>
    <path d="M113.797 110.843L120.242 103.363L121.211 104.289C122.155 105.189 122.718 106.442 122.779 107.782C122.84 109.119 122.395 110.429 121.543 111.42C120.687 112.411 119.495 113.005 118.225 113.07C116.954 113.136 115.709 112.669 114.771 111.769L113.801 110.843H113.797Z" fill="#E1DCEB"/>
  </g>
  <defs>
    <linearGradient id="paint0_linear_2355_53394" x1="65.0955" y1="-4.39748" x2="66.1697" y2="179.623" gradientUnits="userSpaceOnUse">
      <stop stop-color="#F2F2F2"/>
      <stop offset="1" stop-color="#EFEFEF"/>
    </linearGradient>
  </defs>
</svg>
