<svg width="393" height="110" viewBox="0 0 393 110" fill="none" xmlns="http://www.w3.org/2000/svg">
<path d="M171.128 50.7116V79.1327H164.191V51.6696C164.191 46.161 159.726 41.6104 154.144 41.6104C152.071 41.6104 150.158 42.2491 148.563 43.2869C147.686 41.1314 146.57 39.1355 145.134 37.2993C147.766 35.6228 150.875 34.6648 154.144 34.6648C163.155 34.6648 170.57 41.7701 171.128 50.7116ZM127.114 34.6648C118.104 34.6648 110.689 41.7701 110.131 50.7116V79.1327H117.067V51.6696C117.067 46.161 121.533 41.6104 127.114 41.6104C132.696 41.6104 137.161 46.0811 137.161 51.6696V79.1327H144.098V50.7116C143.619 41.7701 136.204 34.6648 127.114 34.6648ZM255.648 35.8623V60.9304C255.648 67.1575 250.624 72.2669 244.325 72.2669C238.026 72.2669 233.003 67.2373 233.003 60.9304V35.8623H226.145V61.8086C226.624 71.3887 234.597 79.1327 244.325 79.1327C254.053 79.1327 262.026 71.4686 262.505 61.8086V35.8623H255.648ZM31.033 34.6648C27.5247 34.6648 24.1758 35.4631 21.2256 36.98V45.1231C23.8568 42.8878 27.2854 41.5306 31.033 41.5306C39.485 41.5306 46.3422 48.3964 46.3422 56.8588C46.3422 65.3213 39.485 72.1871 31.033 72.1871C22.5811 72.1871 15.7238 65.3213 15.7238 56.8588V8H8.86658V57.8168C9.34499 69.6324 19.0727 79.1327 31.033 79.1327C42.9933 79.1327 53.1994 69.1534 53.1994 56.9387C53.1994 44.724 43.2325 34.7446 31.033 34.7446V34.6648ZM199.354 34.6648C195.846 34.6648 192.497 35.4631 189.547 36.98V45.1231C192.178 42.8878 195.607 41.5306 199.354 41.5306C207.806 41.5306 214.664 48.3964 214.664 56.8588C214.664 65.3213 207.806 72.1871 199.354 72.1871C190.902 72.1871 184.045 65.3213 184.045 56.8588V8H177.188V57.8168C177.666 69.6324 187.394 79.1327 199.354 79.1327C211.315 79.1327 221.521 69.1534 221.521 56.9387C221.521 44.724 211.554 34.7446 199.354 34.7446V34.6648ZM80.0703 34.6648C67.8708 34.6648 57.9038 44.6441 57.9038 56.8588C57.9038 69.0735 67.8708 79.0529 80.0703 79.0529C83.5786 79.0529 86.9275 78.2545 89.8777 76.7377V68.5945C87.2465 70.8299 83.8178 72.1871 80.0703 72.1871C71.6183 72.1871 64.7611 65.3213 64.7611 56.8588C64.7611 48.3964 71.6183 41.5306 80.0703 41.5306C88.5222 41.5306 95.3795 48.3964 95.3795 56.8588C95.3795 56.8588 95.3795 56.9387 95.3795 57.0185V79.1327H102.237V56.0605C101.758 44.2449 92.0306 34.7446 80.0703 34.7446V34.6648Z" fill="white"/>
<path fill-rule="evenodd" clip-rule="evenodd" d="M360.567 79.0485C373.987 79.0485 384.867 68.1555 384.867 54.7184C384.867 41.2812 373.987 30.3883 360.567 30.3883C347.146 30.3883 336.267 41.2812 336.267 54.7184C336.267 68.1555 347.146 79.0485 360.567 79.0485ZM375.039 57.8659C377.519 56.4462 377.519 52.8661 375.039 51.4463L355.369 40.1839C352.907 38.7743 349.843 40.5542 349.843 43.3938V65.9185C349.843 68.7581 352.907 70.5379 355.369 69.1283L375.039 57.8659Z" fill="white"/>
<path d="M330.96 62.1625V54.2589C330.8 51.4646 330.402 48.5906 329.365 45.956C325.857 36.7751 317.086 30.3883 306.8 30.3883C306.8 30.3883 306.72 30.3883 306.64 30.3883C305.923 30.3883 305.285 30.3883 304.647 30.4681C294.042 31.4261 284.952 39.4096 283.039 50.0276C281.125 60.3263 285.83 69.8266 293.644 74.8562C294.441 75.415 295.318 75.8941 296.275 76.2932C299.464 77.8899 303.052 78.7681 306.88 78.7681C309.511 78.7681 312.142 78.2891 314.614 77.4907V65.4357C310.229 68.5493 304.169 68.9484 299.225 65.4357C296.674 63.6793 294.84 61.0448 294.042 58.0111C291.889 49.7881 297.71 42.124 305.604 41.3256C305.684 41.3256 305.763 41.3256 305.843 41.3256C306.162 41.3256 306.561 41.3256 306.959 41.3256C314.295 41.3256 320.275 47.3132 320.275 54.658V77.8101C320.275 84.1969 315.81 89.7055 309.591 90.903C308.634 91.0626 307.836 91.1425 307.119 91.1425C306.8 91.1425 306.561 91.1425 306.322 91.1425C294.68 90.903 293.564 85.1549 293.564 80.6841V80.4446H282.879C282.879 93.6174 292.129 101.84 307.039 102C307.039 102 307.199 102 307.278 102C307.278 102 307.278 102 307.358 102C308.155 102 309.033 102 310.069 101.84C319.558 100.643 327.212 94.1762 330.003 85.4742C330.721 83.159 331.039 80.764 331.039 78.2891L331.199 64.318V62.2423L330.96 62.1625Z" fill="white"/>
</svg>
