<svg width="72" height="72" viewBox="0 0 72 72" fill="none" xmlns="http://www.w3.org/2000/svg">
<path d="M26.0002 71.8334H29.3335C30.7002 71.8334 31.8335 70.7001 31.8335 69.3334C31.8335 67.9668 30.7002 66.8334 29.3335 66.8334H26.0002C10.6335 66.8334 5.16682 61.3668 5.16682 46.0001V26.0001C5.16682 10.6334 10.6335 5.16675 26.0002 5.16675H46.0002C61.3668 5.16675 66.8335 10.6334 66.8335 26.0001V29.2667C66.8335 30.6334 67.9668 31.7667 69.3335 31.7667C70.7002 31.7667 71.8335 30.6334 71.8335 29.2667V26.0001C71.8335 7.90008 64.1002 0.166748 46.0002 0.166748H26.0002C7.90016 0.166748 0.166824 7.90008 0.166824 26.0001V46.0001C0.166824 64.1001 7.90016 71.8334 26.0002 71.8334Z" fill="#00876A"/>
<path d="M32.6656 35.1667C33.2989 35.1667 33.9322 34.9333 34.4322 34.4333C35.3989 33.4667 35.3989 31.8667 34.4322 30.9L21.9656 18.3999H29.3322C30.6989 18.3999 31.8322 17.2666 31.8322 15.8999C31.8322 14.5332 30.7322 13.3999 29.3322 13.3999H15.9656C14.9656 13.3999 14.0322 13.9999 13.6656 14.9332C13.2656 15.8666 13.4989 16.9332 14.1989 17.6666L30.8989 34.4333C31.3989 34.9333 32.0322 35.1667 32.6656 35.1667Z" fill="#00876A"/>
<path d="M15.9673 31.8C17.334 31.8 18.4673 30.6667 18.4673 29.2999V15.8999C18.4673 14.5332 17.334 13.3999 15.9673 13.3999C14.6006 13.3999 13.4673 14.5332 13.4673 15.8999V29.2666C13.4673 30.6667 14.6006 31.8 15.9673 31.8Z" fill="#00876A"/>
<path d="M49.8335 71.8335H58.8335C67.7002 71.8335 71.8335 67.7002 71.8335 58.8335V49.8335C71.8335 40.9668 67.7002 36.8335 58.8335 36.8335H49.8335C40.9668 36.8335 36.8335 40.9668 36.8335 49.8335V58.8335C36.8335 67.7002 40.9668 71.8335 49.8335 71.8335ZM58.8335 41.8335C64.9668 41.8335 66.8335 43.7002 66.8335 49.8335V58.8335C66.8335 64.9668 64.9668 66.8335 58.8335 66.8335H49.8335C43.7002 66.8335 41.8335 64.9668 41.8335 58.8335V49.8335C41.8335 43.7002 43.7002 41.8335 49.8335 41.8335H58.8335Z" fill="#00876A"/>
</svg>
