<svg xmlns="http://www.w3.org/2000/svg" width="168" height="35" viewBox="0 0 168 35" fill="none"><path d="M124.264 21.1478H124.278V34.7096H120.952V21.5741C120.952 18.9262 118.797 16.7709 116.149 16.7709C115.159 16.7709 114.235 17.074 113.468 17.5904C113.065 16.553 112.507 15.5867 111.824 14.7293C113.08 13.9382 114.562 13.4787 116.149 13.4787C120.479 13.4787 124.027 16.8798 124.264 21.1478V21.1478ZM103.217 13.4787C98.8878 13.4787 95.3399 16.8798 95.103 21.1478H95.0888V34.7096H98.4142V21.5741C98.4142 18.9262 100.569 16.7709 103.217 16.7709C105.865 16.7709 108.021 18.9262 108.021 21.5741V34.7096H111.346V21.1478H111.332C111.095 16.8798 107.542 13.4787 103.217 13.4787ZM164.717 14.0472V26.0221C164.717 28.9969 162.296 31.4222 159.317 31.4222C156.337 31.4222 153.917 29.0016 153.917 26.0221V14.0472H150.625V26.4484H150.634C150.857 31.0432 154.665 34.7144 159.312 34.7144C163.959 34.7144 167.767 31.0432 167.99 26.4484H168V14.0472H164.707H164.717ZM57.274 13.4787C55.5829 13.4787 53.9866 13.8766 52.5655 14.5824V18.4904C53.8397 17.4198 55.4834 16.7709 57.274 16.7709C61.3146 16.7709 64.5973 20.0583 64.5973 24.0942C64.5973 28.13 61.3098 31.4175 57.274 31.4175C53.2381 31.4175 49.9507 28.13 49.9507 24.0942V0.726929H46.6585V24.5205H46.668C46.8906 30.1764 51.5613 34.7096 57.274 34.7096C62.9867 34.7096 67.8894 29.949 67.8894 24.0942C67.8894 18.2393 63.1288 13.4787 57.274 13.4787V13.4787ZM137.787 13.4787C136.101 13.4787 134.505 13.8766 133.088 14.5777V18.4809C134.363 17.4151 136.002 16.7709 137.787 16.7709C141.828 16.7709 145.111 20.0583 145.111 24.0942C145.111 28.13 141.823 31.4175 137.787 31.4175C133.752 31.4175 130.464 28.13 130.464 24.0942V0.726929H127.172V24.5205H127.181C127.404 30.1764 132.075 34.7096 137.787 34.7096C143.5 34.7096 148.403 29.949 148.403 24.0942C148.403 18.2393 143.642 13.4787 137.787 13.4787V13.4787ZM80.7265 13.4787C74.8716 13.4787 70.111 18.2393 70.111 24.0942C70.111 29.949 74.8716 34.7096 80.7265 34.7096C82.4176 34.7096 84.0186 34.3117 85.435 33.6059V29.698C84.1608 30.7732 82.517 31.4175 80.7265 31.4175C76.6859 31.4175 73.4032 28.13 73.4032 24.0942C73.4032 20.0583 76.6906 16.7709 80.7265 16.7709C84.7623 16.7709 88.0498 20.0583 88.0498 24.0942C88.0498 24.1179 88.0498 24.1368 88.0498 24.1605V34.7096H91.3419V23.6678H91.3325C91.1098 18.012 86.4392 13.4787 80.7265 13.4787V13.4787Z" fill="#803AAA"></path><path d="M22.8606 1.76419C22.9885 1.92998 23.1117 2.09577 23.2301 2.26156C23.3485 2.42736 23.4669 2.60262 23.5806 2.77789C23.6943 2.95315 23.8032 3.12842 23.9075 3.30842C24.0117 3.48843 24.1159 3.66843 24.2154 3.85317C24.3148 4.03791 24.4096 4.22265 24.4996 4.40739C24.5896 4.59213 24.6796 4.78634 24.7648 4.97582C24.8501 5.1653 24.9306 5.35951 25.0064 5.55846C25.0822 5.75741 25.158 5.95163 25.2243 6.15058C25.2906 6.34953 25.357 6.55322 25.4185 6.75217C25.4801 6.95112 25.537 7.15954 25.5891 7.36797C25.6412 7.57639 25.6885 7.78482 25.7359 7.99324C25.7833 8.20166 25.8212 8.41483 25.8591 8.62799C25.897 8.84115 25.9254 9.05431 25.9538 9.27221C25.9822 9.49011 26.0059 9.70327 26.0201 9.92117C26.0343 10.1391 26.0533 10.357 26.0628 10.5796C26.0722 10.8022 26.077 11.0201 26.077 11.2428C26.077 11.5033 26.0722 11.7638 26.058 12.0244C26.0438 12.2849 26.0249 12.5407 26.0012 12.7965C25.9775 13.0523 25.9443 13.3033 25.9064 13.5544C25.8685 13.8054 25.8259 14.0565 25.7785 14.3028C25.7312 14.5491 25.6743 14.7955 25.6128 15.037C25.5512 15.2786 25.4849 15.5202 25.4138 15.7571C25.3427 15.9939 25.2622 16.2307 25.1817 16.4629C25.1012 16.695 25.0112 16.9271 24.9164 17.1544C24.8217 17.3818 24.7222 17.6092 24.618 17.8318C24.5138 18.0545 24.4048 18.2724 24.2912 18.4903C24.1775 18.7082 24.059 18.9213 23.9359 19.1297C23.8127 19.3382 23.6848 19.5466 23.5475 19.7503C23.4101 19.954 23.2774 20.1529 23.1306 20.3519C22.9838 20.5508 22.8417 20.7403 22.6901 20.9345C22.5385 21.1287 22.3822 21.3087 22.2211 21.4935C22.0601 21.6782 21.8943 21.8535 21.7285 22.0287L21.7001 22.0572L21.6716 22.0856L21.6432 22.114L21.6148 22.1424L21.5864 22.1709L21.5579 22.1993L21.5295 22.2277L21.5011 22.2561L21.4727 22.2845L21.4443 22.313L21.4158 22.3414L21.3874 22.3698L21.359 22.3982L21.3306 22.4266L21.3022 22.4551L21.2737 22.4835C21.1979 22.5593 21.1174 22.6303 21.0369 22.7061C20.9564 22.7819 20.8758 22.853 20.7953 22.924C20.7148 22.9951 20.6342 23.0661 20.549 23.1372C20.4637 23.2082 20.3832 23.2746 20.2979 23.3456C20.2127 23.4167 20.1274 23.483 20.0421 23.5493C19.9569 23.6156 19.8716 23.6819 19.7816 23.7435C19.6916 23.8051 19.6063 23.8714 19.5163 23.933C19.4263 23.9946 19.3411 24.0561 19.2511 24.1177C19.1611 24.1793 19.0711 24.2409 18.9811 24.2977C18.8911 24.3546 18.7963 24.4162 18.7063 24.473C18.6163 24.5298 18.5216 24.5867 18.4268 24.6435C18.3321 24.7004 18.2374 24.7525 18.1426 24.8046C18.0479 24.8567 17.9531 24.9088 17.8584 24.9609C17.7637 25.013 17.6642 25.0604 17.5695 25.1125C17.4747 25.1646 17.3752 25.212 17.2758 25.2546C17.1763 25.2972 17.0768 25.3493 16.9773 25.392C16.8542 25.4488 16.7358 25.5009 16.6126 25.553C16.4894 25.6051 16.3663 25.6572 16.2431 25.7046C16.12 25.752 15.9921 25.8041 15.8689 25.8467C15.7457 25.8893 15.6178 25.9367 15.4899 25.9793C15.3621 26.022 15.2342 26.0646 15.1063 26.1025C14.9784 26.1404 14.8457 26.183 14.7178 26.2162C14.5899 26.2493 14.4573 26.2872 14.3247 26.3204C14.192 26.3536 14.0594 26.3867 13.9268 26.4151C13.7941 26.4436 13.6615 26.472 13.5241 26.5004C13.3868 26.5288 13.2541 26.5525 13.1215 26.5762C12.9889 26.5999 12.8515 26.6188 12.7141 26.6378C12.5767 26.6567 12.4394 26.6757 12.302 26.6899C12.1646 26.7041 12.0273 26.7183 11.8851 26.7325C11.743 26.7467 11.6057 26.7562 11.4683 26.7657C11.3309 26.7751 11.1888 26.7799 11.0467 26.7846C10.9046 26.7894 10.7625 26.7941 10.6251 26.7941H10.5114C10.2888 26.7941 10.0662 26.7941 9.84827 26.7799C9.63037 26.7657 9.40774 26.7562 9.18984 26.7372C8.97194 26.7183 8.75404 26.6946 8.54088 26.6709C8.32772 26.6472 8.10982 26.6141 7.9014 26.5762C7.69297 26.5383 7.47981 26.5004 7.26665 26.4578C7.05349 26.4151 6.8498 26.363 6.64138 26.3109C6.43295 26.2588 6.22926 26.202 6.02558 26.1404C5.82189 26.0788 5.62294 26.0125 5.42399 25.9462C5.22504 25.8799 5.02609 25.8041 4.83187 25.7283C4.63766 25.6525 4.44344 25.572 4.24923 25.4867C4.05502 25.4014 3.87028 25.3162 3.6808 25.2214C3.49132 25.1267 3.30658 25.0367 3.12658 24.9372C2.94658 24.8377 2.76184 24.7383 2.58183 24.6293C2.40183 24.5204 2.22656 24.4162 2.0513 24.3025C1.87603 24.1888 1.7055 24.0751 1.53497 23.9567C1.36444 23.8382 1.19865 23.7151 1.0376 23.5872C1.14181 23.8667 1.25076 24.1461 1.36918 24.4209C1.4876 24.6956 1.61077 24.9656 1.7434 25.2309C1.87603 25.4962 2.0134 25.7567 2.16025 26.0172C2.30709 26.2778 2.45867 26.5288 2.61499 26.7799C2.77131 27.0309 2.9371 27.2725 3.10763 27.5141C3.27816 27.7557 3.45343 27.9925 3.63343 28.2199C3.81343 28.4473 4.00291 28.6794 4.19713 28.8973C4.39134 29.1152 4.59029 29.3331 4.79398 29.5462C4.99766 29.7594 5.20609 29.9631 5.42399 30.162C5.64189 30.361 5.85978 30.5552 6.08242 30.7447C6.30506 30.9342 6.53716 31.1189 6.77401 31.2942C7.01086 31.4694 7.2477 31.6447 7.49402 31.8058C7.74034 31.9668 7.98666 32.1279 8.23772 32.2842C8.48878 32.4358 8.74931 32.5826 9.00984 32.72C9.27037 32.8573 9.53564 32.99 9.80564 33.1179C10.0756 33.2458 10.3456 33.3642 10.6251 33.4731C10.7483 33.5253 10.8714 33.5726 10.9946 33.62C11.1178 33.6674 11.2457 33.7147 11.3688 33.7574C11.492 33.8 11.6199 33.8426 11.7478 33.8853C11.8757 33.9279 12.0036 33.9658 12.1315 34.0037C12.2594 34.0416 12.3873 34.0795 12.5199 34.1126C12.6525 34.1458 12.7804 34.1837 12.9083 34.2168C13.0362 34.25 13.1689 34.2784 13.3015 34.3116C13.4341 34.3447 13.5668 34.3684 13.6994 34.3968C13.832 34.4253 13.9647 34.449 14.0973 34.4726C14.2299 34.4963 14.3673 34.5153 14.4999 34.539C14.6326 34.5626 14.7699 34.5769 14.9073 34.5958C15.0447 34.6147 15.1773 34.629 15.3147 34.6432C15.4521 34.6574 15.5894 34.6669 15.7268 34.6811C15.8642 34.6953 16.0015 34.7 16.1436 34.7095C16.2858 34.719 16.4231 34.7237 16.5605 34.7237C16.6979 34.7237 16.84 34.7284 16.9821 34.7284H17.0152C17.6026 34.7284 18.1805 34.7 18.7537 34.6384C19.3269 34.5816 19.8858 34.4916 20.44 34.3826C20.9943 34.2737 21.5343 34.1268 22.0695 33.9611C22.6048 33.7953 23.1211 33.6058 23.6327 33.3879C24.1396 33.1747 24.6369 32.9331 25.1201 32.6726C25.6033 32.4121 26.0675 32.1279 26.5222 31.82C26.977 31.5121 27.4128 31.1852 27.8296 30.8394C28.2465 30.4936 28.6539 30.1241 29.0375 29.7405C29.4212 29.3568 29.7907 28.9541 30.1365 28.5325C30.4823 28.111 30.8092 27.6752 31.1171 27.2251C31.425 26.7751 31.7092 26.3062 31.9697 25.823C32.2302 25.3399 32.4718 24.8472 32.685 24.3356C32.8981 23.8288 33.0924 23.3077 33.2581 22.7724C33.4239 22.2419 33.566 21.6972 33.6797 21.1429C33.7934 20.5887 33.8787 20.025 33.9355 19.4566C33.9924 18.8882 34.0255 18.3055 34.0255 17.7181C34.0255 17.2587 34.0066 16.8087 33.9734 16.3586C33.9403 15.9086 33.8834 15.4681 33.8171 15.0276C33.7508 14.587 33.6608 14.156 33.5566 13.7297C33.4524 13.3033 33.3339 12.8817 33.2013 12.4696C33.0687 12.0575 32.9171 11.6501 32.7513 11.2522C32.5855 10.8543 32.4055 10.4612 32.216 10.0775C32.0218 9.69379 31.8134 9.31958 31.5955 8.95484C31.3776 8.59009 31.1407 8.23009 30.8944 7.88429C30.6481 7.5385 30.3876 7.19744 30.1176 6.87059C29.8476 6.54374 29.5633 6.22637 29.2697 5.91847C28.976 5.61057 28.6681 5.31688 28.3507 5.03266C28.0333 4.74845 27.7065 4.47844 27.3702 4.21791C27.0338 3.95738 26.6833 3.71106 26.328 3.47895C25.9728 3.24684 25.6033 3.02421 25.2291 2.81578C24.8548 2.60736 24.4712 2.41315 24.078 2.23788C23.6848 2.06261 23.2869 1.89208 22.8795 1.74524L22.8606 1.76419Z" fill="#803AAA"></path><path d="M22.861 1.76441C22.6336 1.67915 22.4015 1.60336 22.1694 1.52757C21.9373 1.45178 21.7004 1.38546 21.4636 1.31914C21.2267 1.25282 20.9899 1.19598 20.7483 1.13914C20.5067 1.0823 20.2651 1.03493 20.0188 0.992295C19.7725 0.949662 19.5262 0.911766 19.2798 0.878608C19.0335 0.845449 18.7825 0.817027 18.5314 0.793343C18.2804 0.769658 18.0293 0.755449 17.7735 0.741238C17.5177 0.727027 17.2619 0.72229 17.0061 0.72229H16.973V11.3425H17.0061C17.4467 11.3425 17.873 11.3851 18.2898 11.4704C18.7067 11.5556 19.1046 11.6835 19.4883 11.8446C19.872 12.0056 20.232 12.2046 20.573 12.4367C20.9141 12.6688 21.2315 12.9293 21.5204 13.2183C21.8094 13.5072 22.0699 13.8246 22.302 14.1657C22.5341 14.5067 22.7283 14.8667 22.8894 15.2504C23.0504 15.6341 23.1783 16.032 23.2636 16.4489C23.3489 16.8657 23.3915 17.292 23.3915 17.7326C23.3915 17.941 23.382 18.1447 23.3631 18.3436C23.3441 18.5426 23.3157 18.7415 23.2778 18.9405C23.2399 19.1394 23.1925 19.3289 23.1404 19.5184C23.0883 19.7079 23.022 19.8926 22.951 20.0726C22.8799 20.2526 22.7994 20.4326 22.7141 20.6032C22.6288 20.7737 22.5341 20.9442 22.4299 21.1053C22.3257 21.2663 22.2167 21.4274 22.103 21.579C21.9894 21.7305 21.8662 21.8821 21.7336 22.0242C22.0699 21.6737 22.392 21.309 22.6952 20.93C22.9983 20.5511 23.2825 20.1579 23.5525 19.7505C23.8178 19.3431 24.0689 18.9215 24.2962 18.4905C24.5236 18.0594 24.732 17.6142 24.9215 17.1594C25.111 16.7047 25.2768 16.2357 25.4189 15.762C25.561 15.2883 25.6842 14.8004 25.7836 14.3078C25.8831 13.8151 25.9589 13.313 26.0063 12.8014C26.0536 12.2899 26.0821 11.7735 26.0821 11.2525C26.0821 10.8072 26.0631 10.3667 26.0252 9.93087C25.9873 9.49507 25.9352 9.06401 25.8594 8.63769C25.7836 8.21137 25.6984 7.79452 25.5942 7.3824C25.4899 6.97029 25.3668 6.56292 25.2294 6.16501C25.092 5.76711 24.9357 5.37395 24.7699 4.99026C24.6041 4.60657 24.4194 4.23235 24.2205 3.86287C24.0215 3.49813 23.8083 3.13812 23.5857 2.79233C23.3631 2.44653 23.1215 2.10547 22.8704 1.77862L22.861 1.76441Z" fill="#562C7A"></path><path d="M10.6202 26.8078C10.9044 26.8078 11.1839 26.7936 11.4634 26.7794C11.7428 26.7652 12.0223 26.7368 12.2971 26.7036C12.5718 26.6704 12.8465 26.6326 13.1165 26.5852C13.3865 26.5378 13.6565 26.4857 13.9218 26.4289C14.1871 26.372 14.4524 26.301 14.7129 26.2299C14.9734 26.1589 15.2292 26.0783 15.485 25.9883C15.7408 25.8983 15.9919 25.8083 16.2382 25.7088C16.4845 25.6094 16.7308 25.5052 16.9724 25.3915C17.1713 25.3015 17.3703 25.2067 17.5645 25.1073C17.7587 25.0078 17.9529 24.9083 18.1424 24.7994C18.3319 24.6904 18.5214 24.5815 18.7061 24.4678C18.8908 24.3541 19.0709 24.2357 19.2509 24.1125C19.4309 23.9893 19.6061 23.8662 19.7814 23.7383C19.9567 23.6104 20.1272 23.4778 20.293 23.3404C20.4588 23.203 20.6246 23.0656 20.7904 22.9235C20.9561 22.7814 21.1125 22.6346 21.2688 22.4877C21.1267 22.6156 20.9798 22.7341 20.8282 22.8477C20.6767 22.9614 20.5203 23.0656 20.3546 23.1651C20.1888 23.2646 20.023 23.3593 19.8524 23.4446C19.6819 23.5299 19.5066 23.6057 19.3266 23.6767C19.1466 23.7478 18.9619 23.8093 18.7772 23.8615C18.5924 23.9136 18.3982 23.9609 18.204 23.9988C18.0098 24.0367 17.8108 24.0651 17.6119 24.0841C17.4129 24.103 17.2092 24.1125 17.0056 24.1125H16.9724C16.5319 24.1125 16.1055 24.0651 15.6934 23.9751C15.2813 23.8851 14.8787 23.762 14.4997 23.6009C14.1208 23.4399 13.7608 23.2409 13.4197 23.0088C13.0834 22.7767 12.766 22.5162 12.4818 22.2272C12.1976 21.9383 11.9323 21.6209 11.7049 21.2846C11.4776 20.9482 11.2786 20.5835 11.1176 20.2045C10.9565 19.8256 10.8333 19.423 10.7481 19.0108C10.6628 18.5987 10.6202 18.1677 10.6202 17.7271V0.726318H0V17.7319C0 17.9877 0.00473645 18.2482 0.0189472 18.4993C0.033158 18.7503 0.047369 19.0061 0.0710537 19.2572C0.0947383 19.5082 0.12316 19.7593 0.156318 20.0056C0.189477 20.2519 0.227372 20.503 0.270004 20.7446C0.312637 20.9861 0.364743 21.2325 0.416849 21.474C0.468955 21.7156 0.530535 21.9525 0.596852 22.1941C0.663169 22.4356 0.729486 22.6677 0.805276 22.8999C0.881067 23.132 0.956858 23.3641 1.04212 23.5914C1.36897 23.8425 1.71003 24.0793 2.05582 24.3067C2.40162 24.5341 2.76163 24.7425 3.12637 24.9415C3.49111 25.1404 3.87007 25.3204 4.24902 25.4909C4.62797 25.6615 5.02587 25.8131 5.42378 25.9504C5.82168 26.0878 6.22905 26.211 6.64117 26.3152C7.05328 26.4194 7.47486 26.5094 7.89645 26.5804C8.31804 26.6515 8.75383 26.7083 9.18963 26.7415C9.62543 26.7794 10.066 26.7983 10.5112 26.7983H10.6249L10.6202 26.8078Z" fill="#562C7A"></path></svg>